<svg xmlns="http://www.w3.org/2000/svg" width="24" height="24" viewBox="0 0 28 28" fill="none">
  <path d="M9.01757 1.34649C8.5965 0.329344 7.48639 -0.212039 6.4255 0.0777922L1.61321 1.39023C0.66169 1.65272 0 2.51675 0 3.50108C0 17.0302 10.9698 28 24.4989 28C25.4833 28 26.3473 27.3383 26.6098 26.3868L27.9222 21.5745C28.212 20.5136 27.6707 19.4035 26.6535 18.9824L21.4037 16.795C20.5124 16.4232 19.4788 16.6802 18.8718 17.4294L16.6625 20.1253C12.8127 18.3043 9.69567 15.1873 7.87465 11.3375L10.5706 9.13364C11.3198 8.52117 11.5768 7.49309 11.205 6.60172L9.01757 1.35195V1.34649Z" fill="#673AB7"/>
</svg>