<svg width="151" height="79" viewBox="0 0 151 79" fill="none" xmlns="http://www.w3.org/2000/svg">
<g clip-path="url(#clip0_4_2)">
<path d="M45.3325 16.6008C45.3451 16.6031 45.3639 16.6067 45.3868 16.6109C45.8339 16.6928 48.5376 17.1544 51.2634 16.0053C52.4181 15.5185 52.0242 15.3972 54.596 13.7048C57.6112 11.7206 58.385 11.7345 58.6095 10.8093C59.0579 8.9619 56.6638 6.05772 55.0792 6.24893C54.6621 6.29928 54.2153 6.57452 53.5204 6.38789C53.3677 6.34688 52.6993 6.16739 52.3735 5.55517C52.0829 5.00902 52.329 4.61505 52.2122 4.16713C51.9053 2.99141 49.3477 2.40466 47.1053 2.81923C45.8156 3.05768 44.8125 3.70865 42.8588 5.00086C39.4585 7.24998 37.7583 8.37455 37.3762 10.0975C37.014 11.7306 37.8833 12.4342 37.2511 14.1824C36.6624 15.8101 35.7275 15.7014 35.4057 17.0181C34.888 19.137 36.8096 21.4625 37.6101 22.4313C38.4878 23.4934 39.3271 24.0763 40.4414 24.8502C41.84 25.8215 42.5393 26.3072 43.3801 26.2578C44.9045 26.1682 49.4342 26.4732 49.4932 25.0772C49.5154 24.554 55.0091 24.9824 52.304 19.3499C51.9722 18.659 45.4722 19.397 45.3864 19.0001" fill="#2F2E41"/>
<path d="M107.295 72.6714L113.628 73.3058L121.494 77.7265L122.791 72.5998L123.924 66.1091L121.564 63.0331L117.487 66.1091L108.963 65.0838L107.295 72.6714Z" fill="#FFB6B6"/>
<path d="M55.2234 51.344L50.4054 77.5931L85.4287 66.5193L108.036 73.4917L111.372 65.4939L86.3552 53.8049L65.786 54.215L55.2234 51.344Z" fill="#2F2E41"/>
<path d="M122.205 65.8314L122.946 66.4466L118.344 76.086C118.344 76.086 121.453 78.0931 122.379 78.0931C123.306 78.0931 126.467 58.2437 126.096 55.3122C125.726 52.3806 123.317 53.322 123.317 53.322L118.116 65.4792L122.205 65.8314Z" fill="#2F2E41"/>
<path d="M19.6628 62.5025C19.177 62.4447 18.9875 63.1805 19.4264 63.4182C20.0618 63.7624 20.6596 64.1961 20.9712 64.7097C21.7678 66.0227 22.8685 65.2637 23.025 65.1458C23.2823 65.6198 23.409 66.0989 23.4636 66.5247L23.0882 67.9013C23.0718 67.9933 23.0889 67.8986 23.0882 67.9013L22.8004 71.4048C22.6033 72.2558 22.752 73.0752 22.8004 73.3157L22.5126 77.7746L23.3172 77.7818L23.404 73.4195L23.4208 73.414C23.4203 73.4123 23.4142 73.3884 23.4054 73.3458L23.4413 71.5432C23.5137 71.2346 23.6283 70.9101 23.8031 70.5881C23.9596 70.706 25.0603 71.4649 25.8569 70.152C26.1685 69.6384 26.7663 69.2047 27.4018 68.8605C27.8406 68.6228 27.6511 67.887 27.1653 67.9448C26.7538 67.9938 26.3049 68.0674 25.8274 68.175C23.8027 68.6312 23.7607 70.1526 23.7784 70.5015L23.7646 70.492C23.6263 70.7375 23.5237 70.9849 23.4476 71.2266L23.5151 67.8324C23.5569 67.592 24.0247 67.2111 23.9516 66.6274L23.6387 61.6151C23.7492 61.8251 23.8716 61.9614 23.9871 61.9468C24.2634 61.9119 24.4026 61.0273 24.3676 60.3833C24.7109 60.9097 25.3621 61.5214 25.5995 61.3457C25.7791 61.2127 25.6726 60.6651 25.4765 60.1673C25.8852 60.4398 26.3378 60.6189 26.4783 60.4459C26.6699 60.2098 26.2107 59.4041 25.7871 58.9544C26.3541 59.0129 27.0751 58.913 27.1224 58.6274C27.1614 58.3921 26.7322 58.0953 26.2729 57.9042C26.7342 57.7695 27.1657 57.535 27.1514 57.3029C27.131 56.9724 26.2138 56.7724 25.6271 56.8167C25.5933 56.8192 25.5616 56.8226 25.5314 56.8267C26.034 56.4893 26.6524 55.7936 26.5077 55.5149C26.4001 55.3075 25.8992 55.3878 25.4371 55.5705C25.7105 55.1378 25.9028 54.6503 25.7564 54.4834C25.5478 54.2457 24.7311 54.749 24.3092 55.2024C24.2699 55.2447 24.2355 55.2849 24.2054 55.3235C24.207 55.2904 24.2078 55.2558 24.2078 55.219C24.2078 54.5681 23.9651 53.5692 23.6657 53.5692C23.4555 53.5692 23.2734 54.0615 23.1835 54.58C22.9799 54.0859 22.6831 53.6323 22.4736 53.6913C22.2232 53.7618 22.1798 54.5416 22.2658 55.1594C21.824 54.7629 21.1766 54.4041 20.9942 54.612C20.8478 54.7788 21.04 55.2664 21.3135 55.6991C20.8514 55.5164 20.3505 55.4361 20.2429 55.6435C20.1257 55.8691 20.5087 56.3679 20.9255 56.7287C20.3729 56.7569 19.7324 56.9416 19.7154 57.2172C19.7011 57.4493 20.1325 57.6838 20.5939 57.8185C20.1345 58.0095 19.7054 58.3064 19.7443 58.5417C19.7916 58.8273 20.5127 58.9272 21.0797 58.8687C20.6561 59.3184 20.1968 60.1241 20.3885 60.3602C20.529 60.5332 20.9816 60.3541 21.3903 60.0816C21.1941 60.5794 21.0876 61.127 21.2673 61.26C21.4921 61.4264 22.0881 60.8866 22.4422 60.3819C22.3903 61.0263 22.5117 61.9331 22.7902 61.9752C23.0043 62.0075 23.2528 61.5196 23.4043 61.0031C23.4498 61.1638 23.5044 61.3207 23.5643 61.459L23.4716 66.1221C23.3945 65.7769 23.267 65.4111 23.0634 65.0497L23.0497 65.0592C23.0674 64.7104 23.0254 63.189 21.0007 62.7327C20.5232 62.6251 20.0743 62.5515 19.6628 62.5025ZM23.3535 72.0607L23.3383 72.8235C23.3245 72.6095 23.3229 72.3491 23.3535 72.0607Z" fill="#F2F2F2"/>
<path d="M150.658 77.3203H0.342477C0.152543 77.3203 0 77.4891 0 77.6993C0 77.9095 0.152532 78.0783 0.342477 78.0783H150.658C150.847 78.0783 151 77.9095 151 77.6993C151 77.4891 150.847 77.3203 150.658 77.3203Z" fill="#3F3D56"/>
<path d="M40.8848 28.5094L43.2938 19.0762L49.2237 19.2812L51.262 26.8689L40.8848 28.5094Z" fill="#FFB6B6"/>
<path d="M42.1592 25.8127C42.1592 25.8127 40.3988 25.3 37.0632 30.0166C33.7277 34.7333 35.2101 68.3649 35.2101 68.3649L59.3929 62.3153L53.0648 38.2056L51.7953 25.4025L42.1592 25.8127Z" fill="#632299"/>
<path d="M79.8853 34.4748L71.9299 39.5721L73.6772 43.1273L81.7898 38.2148C82.6609 38.1664 83.5088 37.8879 84.2627 37.4026C86.1647 36.2165 87.1532 34.17 86.4714 32.8309C85.7895 31.4918 83.6955 31.3676 81.7944 32.5536C81.0285 33.0161 80.3739 33.6749 79.8853 34.4748Z" fill="#FFB6B6"/>
<path d="M41.7605 35.2673L58.3289 52.0613L81.1455 39.8452L78.2833 33.5497L61.988 40.6986L46.3639 26.7792L41.7605 35.2673Z" fill="#632299"/>
<path d="M36.3219 64.6737L42.993 52.9846C42.993 52.9846 56.3353 38.2195 61.3386 39.4499C66.3419 40.6803 72.2718 63.8534 72.2718 63.8534L67.2685 67.3396L58.3736 53.5998C58.3736 53.5998 57.4471 72.4664 54.6915 76.5678C51.936 80.6692 40.7693 78.8236 36.6925 76.5678C32.6158 74.312 36.3219 64.6737 36.3219 64.6737Z" fill="#2F2E41"/>
<path d="M66.8978 64.8787L67.6391 68.7751L67.2684 71.2359L68.5656 74.1069L78.7576 75.3373L79.3135 70.0055L73.9395 66.9294L70.0481 62.6229L66.8978 64.8787Z" fill="#FFB6B6"/>
<path d="M78.0164 73.2866L77.4605 74.1069L66.787 70.7031C66.787 70.7031 67.2685 75.9525 67.2685 76.9779C67.2685 78.0033 84.8728 78.0033 87.5218 77.5931C90.1709 77.183 89.3202 74.5171 89.3202 74.5171L78.3346 68.7623L78.0164 73.2866Z" fill="#2F2E41"/>
<path d="M65.8483 37.1546L74.8733 38.0267L80.182 36.233L83.1877 32.1704L85.6455 22.8499L71.6264 15.8439L71.3703 15.7163L69.4277 15.9231L65.9291 36.6739L65.8483 37.1546Z" fill="#FD6982"/>
<path opacity="0.2" d="M65.9291 36.6739L68.3551 37.0385L71.6264 15.8439L71.3703 15.7163L69.4277 15.9231L65.9291 36.6739Z" fill="#241F20"/>
<path d="M66.8379 38.5974C66.4853 38.5665 66.1645 38.3668 65.9575 38.0496C65.7505 37.7324 65.6802 37.3325 65.7647 36.9524L66.2217 34.8958L66.2635 34.9021C66.2884 34.9057 68.7807 35.2736 71.6518 35.4073C75.4461 35.5841 78.1754 35.2738 79.5446 34.5099C82.9169 32.6274 84.8676 22.4647 84.8868 22.3622L84.8957 22.3148L85.629 22.4272C85.9607 22.4781 86.252 22.6711 86.449 22.9705C86.6455 23.2692 86.7219 23.634 86.6641 23.9976C86.2125 26.8396 84.7351 33.7415 80.7812 36.4452C80.7425 36.4716 80.7039 36.4975 80.6645 36.5234C76.6964 39.1372 69.6875 38.8466 66.8379 38.5974Z" fill="#3F3D58"/>
<path d="M77.2739 35.5479C76.4889 35.9693 75.8066 36.5928 75.2841 37.366L67.1179 42.0373L68.7098 45.6807L77.0251 41.2023C77.8973 41.2001 78.7563 40.9667 79.5302 40.5217C81.4812 39.4374 82.5569 37.4454 81.9336 36.0719C81.3103 34.6983 79.224 34.4636 77.2739 35.5479Z" fill="#FFB6B6"/>
<path d="M37.1686 36.1435L52.9936 53.7936L76.3112 42.7968L73.7238 36.3573L57.1388 42.6373L42.1329 27.9083L37.1686 36.1435Z" fill="#632299"/>
<path d="M46.5692 22.803C51.3121 22.803 55.1571 18.548 55.1571 13.2992C55.1571 8.05036 51.3121 3.79535 46.5692 3.79535C41.8262 3.79535 37.9812 8.05036 37.9812 13.2992C37.9812 18.548 41.8262 22.803 46.5692 22.803Z" fill="#FFB6B6"/>
<path d="M43.8031 13.9142C43.8156 13.9166 43.8345 13.9201 43.8573 13.9243C44.3045 14.0062 47.0082 14.4678 49.734 13.3187C50.8887 12.8319 50.4948 12.7106 53.0666 11.0182C56.0818 9.03405 56.8556 9.04792 57.0801 8.12274C57.5284 6.27532 55.1344 3.37113 53.5498 3.56235C53.1326 3.61269 52.6859 3.88794 51.9909 3.7013C51.8383 3.6603 51.1699 3.4808 50.8441 2.86858C50.5534 2.32244 50.7996 1.92846 50.6827 1.48055C50.3759 0.304825 47.8183 -0.281924 45.5759 0.132645C44.2862 0.371094 43.283 1.02206 41.3294 2.31427C37.9291 4.5634 36.2289 5.68797 35.8468 7.41092C35.4846 9.04398 36.3539 9.74764 35.7217 11.4958C35.133 13.1235 34.1981 13.0148 33.8763 14.3315C33.3586 16.4504 35.2802 18.776 36.0807 19.7447C36.9583 20.8068 37.7977 21.3897 38.912 22.1636C40.3106 23.135 41.0099 23.6206 41.8507 23.5712C43.3751 23.4816 44.8913 21.9529 44.9503 20.5569C44.9725 20.0337 44.7753 19.8768 44.2872 18.0783C44.0838 17.329 43.9428 16.7104 43.857 16.3135" fill="#2F2E41"/>
</g>
<defs>
<clipPath id="clip0_4_2">
<rect width="151" height="79" fill="white"/>
</clipPath>
</defs>
</svg>
