<svg width="178" height="129" viewBox="0 0 178 129" fill="none" xmlns="http://www.w3.org/2000/svg">
<g clip-path="url(#clip0_5_155)">
<path d="M132.265 83.9992C132.547 84.0121 132.785 83.7946 132.798 83.5132C132.805 83.363 132.745 83.2174 132.635 83.1153L132.6 82.9764L132.614 82.943C132.909 82.2466 133.712 81.921 134.409 82.2158C134.74 82.3559 135.002 82.6205 135.14 82.9524C135.553 83.9475 136.079 84.9443 136.209 85.9964C136.266 86.4615 136.241 86.9329 136.137 87.3897C137.108 85.2729 137.612 82.9722 137.615 80.6436C137.615 80.0593 137.583 79.4754 137.518 78.8947C137.464 78.4186 137.389 77.9459 137.294 77.4766C136.774 74.9303 135.657 72.5437 134.036 70.5128C133.251 70.0846 132.616 69.4261 132.217 68.626C132.073 68.3384 131.97 68.0314 131.914 67.7145C132.002 67.7261 132.092 67.7334 132.181 67.7392C132.208 67.7406 132.237 67.7421 132.265 67.7435L132.275 67.744C132.554 67.7565 132.79 67.5407 132.803 67.2619C132.808 67.1383 132.768 67.0169 132.69 66.9209C132.652 66.8738 132.614 66.8268 132.576 66.7798C132.518 66.7072 132.458 66.6361 132.4 66.5635C132.393 66.5567 132.387 66.5494 132.381 66.5418C132.314 66.459 132.248 66.3778 132.181 66.295C132.303 66.1059 132.467 65.9474 132.66 65.832C133.329 65.4402 134.252 65.7116 134.735 66.3168C135.194 66.9561 135.343 67.7665 135.143 68.5273C134.978 69.1707 134.704 69.7813 134.333 70.3328C134.37 70.3793 134.407 70.4243 134.444 70.4707C135.107 71.3236 135.685 72.2395 136.17 73.2052C136.052 72.1233 136.192 71.029 136.58 70.0121C136.973 69.0644 137.709 68.2662 138.358 67.447C138.837 66.8323 139.723 66.7223 140.338 67.2013C140.633 67.4311 140.825 67.7687 140.871 68.1398L140.875 68.176C140.778 68.2304 140.684 68.288 140.592 68.3491C140.274 68.5613 140.189 68.9908 140.401 69.3085C140.509 69.4697 140.679 69.5783 140.871 69.6079L140.885 69.61C140.851 69.9571 140.79 70.3012 140.704 70.6391C140.197 72.5462 138.918 74.1558 137.175 75.0804C137.119 75.1094 137.063 75.1384 137.007 75.166C137.494 76.5459 137.799 77.9832 137.915 79.4419C137.981 80.3024 137.977 81.1669 137.904 82.0268L137.908 81.9963C138.094 81.0401 138.604 80.1773 139.352 79.5536C140.464 78.6407 142.034 78.3045 143.233 77.5707C143.602 77.3338 144.093 77.4408 144.33 77.8098C144.431 77.9679 144.473 78.1568 144.449 78.343L144.444 78.3751C144.265 78.4479 144.091 78.5317 143.923 78.6262C143.826 78.6805 143.732 78.7382 143.64 78.7992C143.322 79.0114 143.237 79.441 143.449 79.7586C143.557 79.9198 143.727 80.0284 143.919 80.058L143.933 80.0601C143.943 80.0616 143.952 80.0631 143.962 80.0645C143.657 80.7937 143.228 81.4648 142.695 82.0486C141.364 83.4767 139.503 84.2931 137.551 84.3055H137.55C137.287 85.4449 136.908 86.5539 136.416 87.6147H132.367C132.352 87.5697 132.339 87.5233 132.326 87.4783C132.701 87.5018 133.077 87.4794 133.446 87.4115C133.146 87.0429 132.846 86.6713 132.545 86.3026C132.538 86.2958 132.532 86.2885 132.526 86.2809C132.374 86.0922 132.22 85.905 132.068 85.7163C132.06 85.1379 132.126 84.5606 132.265 83.9992Z" fill="#F2F2F2"/>
<path d="M120.015 46.8496C120.015 49.0786 121.13 51.3469 123.359 51.3469C125.588 51.3469 128.664 49.7325 127.972 46.273C127.535 44.0872 126.28 42.8135 124.051 42.8135C121.822 42.8135 120.015 44.6205 120.015 46.8496Z" fill="#2F2E41"/>
<path d="M129.365 78.6973C128.907 78.1883 128.947 77.4036 129.456 76.9447C129.511 76.8958 129.569 76.8517 129.631 76.8131L128.655 72.5126L130.8 73.3196L131.398 77.2797C131.723 77.8874 131.493 78.6433 130.886 78.9682C130.377 79.24 129.749 79.128 129.365 78.6973Z" fill="#A0616A"/>
<path d="M124.813 63.4541L126.31 63.6065C126.31 63.6065 125.918 65.8241 126.531 66.3237C127.143 66.8232 126.896 66.8208 126.893 67.191C126.93 67.7284 127.195 68.2245 127.62 68.5555C128.11 68.9304 129.129 75.6078 129.129 75.6078L131.35 75.6291C131.284 75.0548 131.29 74.4744 131.367 73.9015C131.499 73.0389 132.164 70.866 131.921 70.4935C131.678 70.1209 131.806 69.4358 131.813 68.6954C131.82 67.955 130.761 68.7731 130.773 67.5391C130.785 66.3052 129.426 58.562 129.56 57.4526C129.694 56.3432 128.346 55.343 128.346 55.343L127.112 55.3312L124.813 63.4541Z" fill="#E6E6E6"/>
<path d="M108.921 53.0403C108.78 53.6742 109.179 54.3024 109.813 54.4435C109.881 54.4585 109.949 54.4676 110.019 54.4705L111.22 58.4724L112.612 56.8066L111.258 53.2617C111.243 52.609 110.701 52.0924 110.048 52.1079C109.502 52.1208 109.036 52.5063 108.921 53.0403Z" fill="#A0616A"/>
<path d="M121.6 54.3438C121.6 54.3438 118.696 53.2553 117.122 59.2165L115.033 61.3805L113.278 58.2085L113.51 57.4561L112.153 54.3804L109.827 55.7153L110.4 57.8269L110.303 58.8708L110.859 59.52L111.769 62.8755L112.338 63.9718C112.338 63.9718 113.056 65.3755 114.309 65.6067C114.643 65.6692 114.984 65.6789 115.321 65.6354C116.123 65.51 116.866 65.1392 117.448 64.5739C118.997 63.1924 120.462 61.7194 121.835 60.1628L121.6 54.3438Z" fill="#E6E6E6"/>
<path d="M125.494 64.3257L125.699 65.3043L125.874 68.9142L118.858 67.9643L118.32 63.7842L119.064 62.5609L125.494 64.3257Z" fill="#A0616A"/>
<path d="M123.218 51.2886C125.052 51.2886 126.538 49.8021 126.538 47.9684C126.538 46.1347 125.052 44.6481 123.218 44.6481C121.384 44.6481 119.898 46.1347 119.898 47.9684C119.898 49.8021 121.384 51.2886 123.218 51.2886Z" fill="#A0616A"/>
<path d="M128.781 55.7323C128.233 54.4399 127.099 53.4881 125.731 53.1726L125.719 53.1701L125.061 52.2852L122.394 52.5526L121.907 53.5525L120.642 54.305H120.639L120.637 54.3075L119.974 54.7024L117.777 57.2746L117.775 57.2771C117.123 57.7125 116.68 58.3984 116.552 59.1719C116.519 59.3928 116.508 59.6164 116.52 59.8394C116.592 61.2067 117.447 62.4241 117.565 62.5866L117.852 64.2039L117.91 64.5364L118.427 64.6114L125.716 65.6538L125.919 65.6838L125.979 65.6913L126.189 65.1488V65.1439L128.221 59.8269L129.134 57.4546C129.136 56.8624 129.016 56.276 128.781 55.7323Z" fill="#E6E6E6"/>
<path d="M126.693 48.8388C126.663 48.834 126.633 48.8277 126.603 48.8229C126.085 48.7311 125.567 48.6408 125.05 48.5473L125.003 47.3769L124.377 48.4254C122.95 48.8989 121.615 48.6313 120.359 48.0405C119.945 47.8438 119.543 47.6222 119.155 47.3769C118.885 45.7283 119.567 44.429 121.317 44.2631C121.372 44.258 121.411 44.2125 121.458 44.1887L121.46 44.1871C121.541 44.1491 121.623 44.1127 121.705 44.0794C123.021 43.5651 124.516 43.8549 125.545 44.8238C126.583 45.8808 127.016 47.3923 126.693 48.8388Z" fill="#2F2E41"/>
<path d="M129.964 75.6153C129.817 74.6345 129.576 73.6701 129.244 72.7356V72.7331C128.966 71.9429 128.619 71.1784 128.209 70.4483C128.207 70.4483 128.206 70.4473 128.206 70.4459C127.615 69.3455 126.843 68.3517 125.924 67.5061L125.826 67.4036H125.801L118.762 67.2311H118.69L118.61 67.2286C118.61 67.2286 118.58 67.3161 118.522 67.4811C118.52 67.4915 118.517 67.5015 118.512 67.5111C118.492 67.5761 118.467 67.6511 118.437 67.7336C118.42 67.7886 118.4 67.8461 118.38 67.9086C118.357 67.9761 118.332 68.0461 118.307 68.1211C118.112 68.7035 117.827 69.5484 117.477 70.5958C117.425 70.7558 117.37 70.9208 117.312 71.0932C115.978 75.1103 113.83 81.6747 111.955 87.8965H118.605C119.25 86.0317 119.935 83.372 119.935 83.372C120.202 83.0545 120.187 82.1921 120.187 82.1921L122.277 79.9973L123.782 87.8965H130.096L130.144 79.1049V79.0299C130.193 77.8886 130.133 76.7451 129.964 75.6153Z" fill="#CCCCCC"/>
<path d="M125.421 44.1046V44.1075C125.42 44.2812 125.442 44.4543 125.487 44.6224C125.494 44.6519 125.502 44.6827 125.512 44.7122V44.7136C125.703 45.3221 126.167 45.8061 126.768 46.0214C126.811 46.0382 126.856 46.0522 126.901 46.0649C126.996 46.0923 127.092 46.112 127.19 46.1238C127.278 46.1362 127.367 46.1424 127.455 46.1421C127.525 46.1423 127.594 46.1391 127.663 46.1322C127.824 46.1159 127.983 46.0796 128.136 46.0242C128.16 46.0172 128.183 46.0088 128.206 45.9989C128.217 45.9949 128.229 45.9902 128.24 45.9849C129.277 45.5506 129.766 44.3574 129.332 43.3198C129.319 43.2888 129.305 43.2581 129.291 43.2277L129.289 43.2263C129.189 43.0174 129.054 42.8275 128.889 42.665C128.522 42.2988 128.36 41.381 127.801 41.381C127.774 41.3805 127.748 41.3814 127.721 41.3838C127.347 41.3964 126.654 42.2048 126.359 42.3956C126.14 42.5339 125.951 42.7136 125.801 42.9246C125.644 43.1417 125.533 43.3878 125.473 43.6486C125.438 43.7982 125.421 43.9512 125.421 44.1046Z" fill="#2F2E41"/>
<path d="M127.907 43.3962C128.223 43.764 128.717 43.907 129.164 44.0985C130.763 44.8 131.912 46.2456 132.236 47.9616C132.359 48.65 132.343 49.3627 132.538 50.0338C132.731 50.705 133.211 51.3634 133.9 51.4799C134.366 51.5595 134.833 51.3796 135.271 51.202C135.512 51.1051 135.753 51.0079 135.994 50.9102C135.742 50.2794 135.491 49.6487 135.241 49.0179C135.644 49.6132 136.112 50.1613 136.637 50.6519C137.501 50.3037 138.365 49.9554 139.231 49.6072C137.102 49.6152 137.465 47.5488 136.989 45.4754C136.727 44.336 134.498 43.5646 134.061 42.4806C133.378 40.7811 131.447 39.9568 129.748 40.6394C129.016 40.9336 128.412 41.4793 128.046 42.1784C127.609 42.3526 127.596 43.0329 127.907 43.3962Z" fill="#2F2E41"/>
<path d="M118.865 67.7363C117.871 67.9956 117.066 68.7244 116.71 69.6882C116.584 69.9605 116.588 70.2751 116.719 70.5447C116.822 70.7372 117.051 70.8241 117.256 70.7483C117.462 70.6375 117.626 70.4628 117.723 70.2507C117.867 69.9784 117.99 69.696 118.092 69.4058C118.259 68.9678 118.615 68.2367 118.106 67.8943C117.678 67.6064 117.112 67.7182 116.631 67.6985C116.11 67.6771 115.532 67.4779 115.347 66.9387C115.168 66.4143 115.589 65.9211 116.043 65.7217C116.598 65.4918 117.23 65.552 117.731 65.8825C118.219 66.2207 118.568 66.7246 118.712 67.3004C118.734 67.3934 118.677 67.4868 118.584 67.5091C118.495 67.5302 118.405 67.4792 118.378 67.3924C118.251 66.8581 117.914 66.3973 117.444 66.113C116.977 65.8436 116.397 65.8662 115.953 66.1713C115.719 66.3164 115.611 66.5989 115.687 66.8628C115.805 67.0969 116.025 67.2622 116.283 67.3089C116.832 67.4416 117.406 67.2698 117.953 67.4451C118.462 67.5756 118.787 68.0743 118.7 68.5928C118.643 68.9039 118.551 69.2075 118.425 69.4978C118.319 69.7962 118.194 70.0878 118.052 70.3711C117.834 70.7816 117.443 71.226 116.926 71.1056C116.337 70.9684 116.197 70.2806 116.323 69.7748C116.665 68.6076 117.595 67.7064 118.773 67.4027C118.866 67.3805 118.959 67.438 118.982 67.531C119.003 67.6194 118.952 67.7091 118.865 67.7363Z" fill="#CCCCCC"/>
<path d="M144.872 88.1465H103.876C102.91 88.1454 102.127 87.3626 102.126 86.3967V30.6524C102.127 29.6865 102.91 28.9037 103.876 28.9026H144.872C145.838 28.9037 146.621 29.6865 146.622 30.6524V86.3967C146.621 87.3626 145.838 88.1454 144.872 88.1465ZM103.876 29.4025C103.186 29.4033 102.627 29.9625 102.626 30.6524V86.3967C102.627 87.0867 103.186 87.6458 103.876 87.6466H144.872C145.562 87.6458 146.121 87.0867 146.122 86.3967V30.6524C146.121 29.9625 145.562 29.4033 144.872 29.4025H103.876Z" fill="#3F3D56"/>
<path d="M151.387 8.52399H35.0756C34.8262 8.51866 34.6283 8.31215 34.6337 8.06273C34.6388 7.82083 34.8337 7.62596 35.0756 7.62079H151.387C151.636 7.62612 151.834 7.83263 151.829 8.08204C151.824 8.32395 151.629 8.51882 151.387 8.52399Z" fill="#CACACA"/>
<path d="M173.982 62.1492H160.734C158.939 62.1492 157.484 60.6942 157.484 58.8995C157.484 57.1048 158.939 55.6498 160.734 55.6498H173.982C175.777 55.6498 177.232 57.1048 177.232 58.8995C177.232 60.6942 175.777 62.1492 173.982 62.1492Z" fill="#632299"/>
<path d="M78.9868 75.75C78.7054 75.763 78.4669 75.5454 78.4539 75.264C78.447 75.1138 78.5068 74.9682 78.6172 74.8661L78.6521 74.7272L78.6382 74.6939C78.3434 73.9974 77.5397 73.6718 76.8432 73.9667C76.5123 74.1068 76.2498 74.3713 76.1121 74.7033C75.699 75.6983 75.173 76.6951 75.0434 77.7472C74.9864 78.2123 75.0105 78.6837 75.1146 79.1406C74.1442 77.0238 73.6403 74.7231 73.637 72.3945C73.6368 71.8101 73.6693 71.2262 73.7343 70.6455C73.788 70.1695 73.8625 69.6968 73.9578 69.2275C74.4779 66.6812 75.5946 64.2946 77.2162 62.2637C78.001 61.8354 78.6357 61.1769 79.0348 60.3768C79.1793 60.0892 79.2815 59.7822 79.3381 59.4654C79.2496 59.477 79.1596 59.4842 79.0711 59.49C79.0435 59.4915 79.0145 59.4929 78.9869 59.4944L78.9765 59.4949C78.6977 59.5074 78.4616 59.2915 78.4491 59.0128C78.4435 58.8892 78.4836 58.7678 78.5615 58.6717C78.5997 58.6247 78.638 58.5777 78.6763 58.5307C78.7344 58.4581 78.7939 58.387 78.8519 58.3144C78.8586 58.3075 78.8649 58.3002 78.8708 58.2926C78.9375 58.2099 79.0043 58.1286 79.0711 58.0459C78.9492 57.8567 78.7853 57.6983 78.5921 57.5829C77.923 57.191 76.9999 57.4624 76.5166 58.0677C76.0581 58.7069 75.9086 59.5173 76.1087 60.2781C76.2743 60.9216 76.5482 61.5321 76.9186 62.0837C76.8824 62.1301 76.8446 62.1751 76.8083 62.2216C76.145 63.0745 75.5669 63.9904 75.0823 64.9561C75.2002 63.8742 75.0595 62.7798 74.6719 61.7629C74.279 60.8152 73.5427 60.0171 72.8943 59.1978C72.4153 58.5831 71.5287 58.4731 70.914 58.9521C70.619 59.182 70.4273 59.5196 70.3811 59.8907L70.3772 59.9269C70.4735 59.9812 70.5678 60.0389 70.66 60.0999C70.9777 60.3121 71.0631 60.7417 70.8509 61.0593C70.7432 61.2206 70.5727 61.3292 70.3811 61.3587L70.367 61.3609C70.4013 61.708 70.462 62.052 70.5484 62.3899C71.0549 64.297 72.3336 65.9066 74.0768 66.8312C74.1334 66.8603 74.1886 66.8893 74.2452 66.9169C73.7583 68.2967 73.4528 69.7341 73.3366 71.1927C73.2708 72.0533 73.2747 72.9177 73.3482 73.7777L73.3438 73.7472C73.158 72.7909 72.648 71.9281 71.8997 71.3045C70.7883 70.3915 69.2182 70.0553 68.0193 69.3215C67.6503 69.0846 67.1591 69.1917 66.9222 69.5606C66.8207 69.7187 66.7786 69.9076 66.8033 70.0939L66.8082 70.1259C66.9869 70.1987 67.1609 70.2826 67.3292 70.377C67.4255 70.4314 67.5198 70.489 67.6121 70.55C67.9297 70.7622 68.0152 71.1918 67.8029 71.5094C67.6952 71.6707 67.5248 71.7793 67.3332 71.8088L67.3191 71.811C67.3089 71.8124 67.3002 71.8139 67.29 71.8153C67.5954 72.5445 68.024 73.2157 68.5571 73.7994C69.888 75.2275 71.7488 76.044 73.7009 76.0563H73.7023C73.9645 77.1957 74.3444 78.3047 74.8359 79.3655H78.8853C78.8998 79.3205 78.9129 79.2741 78.926 79.2291C78.5511 79.2527 78.1748 79.2302 77.8055 79.1624C78.1059 78.7937 78.4063 78.4221 78.7068 78.0535C78.7135 78.0466 78.7198 78.0393 78.7257 78.0317C78.878 77.843 79.0319 77.6558 79.1843 77.4671C79.1924 76.8888 79.126 76.3114 78.9868 75.75Z" fill="#F2F2F2"/>
<g opacity="0.38">
<path d="M71.298 69.8671C70.6724 69.355 70.5804 68.4327 71.0925 67.8071C71.1471 67.7404 71.2075 67.6786 71.273 67.6225L67.9637 58.9711L70.6084 59.5313L73.4164 67.8529C73.9032 68.5039 73.77 69.4262 73.119 69.913C72.5743 70.3203 71.8215 70.3014 71.298 69.8671Z" fill="#FFB8B8"/>
<path d="M72.6595 60.3919L69.6898 48.0331L68.4124 44.4385C68.411 44.4372 68.4101 44.4354 68.4099 44.4335C68.2019 43.8463 67.7669 43.3672 67.2025 43.1036C66.6378 42.8333 65.9878 42.8026 65.4002 43.0186C65.35 43.0361 65.3008 43.0561 65.2527 43.0786C65.1502 43.1255 65.0508 43.1789 64.9552 43.2386C64.4041 43.5861 64.0213 44.1462 63.8978 44.786L63.6729 45.9658L63.5779 46.4683L67.085 58.727V58.732L68.3049 63.0016L68.8698 64.9714V64.9739L69.5248 67.2662L69.5398 67.3137L71.1121 67.2087H71.1146L71.3521 67.1912L73.1519 67.0712L73.4119 67.0537L72.6595 60.3919Z" fill="#2F2E41"/>
<path d="M60.603 39.7577L67.2178 53.1349L71.4024 67.3593C62.5863 69.0784 51.5244 72.756 50.7281 67.4817C51.2188 52.7767 52.7645 48.0862 55.9554 41.7113L60.603 39.7577Z" fill="#2F2E41"/>
<path d="M69.4473 79.3974H64.0153L61.8131 71.9557L60.2632 79.3024C60.2582 79.3349 60.2557 79.3649 60.2507 79.3974H54.4613C54.6488 77.0976 54.9912 73.098 55.1537 72.5306C55.3837 71.7257 55.1537 71.7257 54.6938 71.2657C54.5913 71.1632 54.5563 70.7533 54.5663 70.1808C54.5938 68.2085 55.1312 64.3014 55.1312 64.3014L55.7687 63.1216L55.9886 62.7116L67.3425 62.3116L67.44 62.3091L67.65 63.224L67.9074 64.3514L68.3599 66.3287L68.7773 67.9061L68.7998 67.9861V68.4535C68.7288 68.6164 68.6962 68.7935 68.7049 68.971C68.7048 69.1309 69.0648 74.1154 69.4473 79.3974Z" fill="#2F2E41"/>
<path d="M59.8279 41.7414L60.6074 39.8764L63.02 39.9188L65.5358 43.4774L68.1763 54.5819C68.1763 54.5819 69.1247 62.6937 68.1763 63.1219C67.2279 63.5502 55.7438 63.3223 55.7438 63.3223C56.2755 58.9416 56.6718 54.4852 57.0894 51.823C58.4698 43.0246 59.1212 44.8762 59.8279 41.7414Z" fill="#632299"/>
<path d="M63.02 39.9188C63.02 39.9188 68.2171 42.923 68.4204 44.4912C68.6237 46.0594 69.3042 65.2534 69.3042 65.2534L67.4664 64.0658L66.9641 57.0703C67.3144 50.8542 66.4594 46.2209 64.7211 42.7478L63.02 39.9188Z" fill="#2F2E41"/>
<path d="M65.2893 36.0704C65.6027 34.1394 64.2914 32.3201 62.3605 32.0068C60.4295 31.6934 58.6102 33.0047 58.2969 34.9356C57.9835 36.8666 59.2948 38.6859 61.2257 38.9992C63.1567 39.3126 64.976 38.0013 65.2893 36.0704Z" fill="#FFB8B8"/>
<path d="M57.4289 35.2927C57.5871 36.0103 57.8724 36.6939 58.2714 37.311C58.3773 37.5214 58.5355 37.7011 58.7309 37.8327C58.935 37.9637 59.2035 37.9301 59.3691 37.753L59.4552 37.6828C59.2863 37.5786 59.1354 37.4477 59.0085 37.2951C58.881 37.1396 58.8365 36.9323 58.8888 36.7382C58.9524 36.5422 59.1596 36.4315 59.3579 36.4877C59.5653 36.5691 59.6914 36.869 59.9084 36.8228C60.0839 36.7845 60.1206 36.5531 60.1206 36.3713C60.1142 35.4203 60.5737 34.0689 60.9295 34.1104C61.289 34.13 61.6489 34.0819 61.9905 33.9684C62.3326 33.8547 62.6935 33.8086 63.0531 33.8328C63.0787 33.836 63.1042 33.8407 63.1313 33.8455C63.189 33.6649 63.2683 33.4918 63.3675 33.3302C63.3563 33.5253 63.3659 33.7211 63.3962 33.9141C63.6824 34.0321 63.9781 34.1255 64.2801 34.1934C64.6088 34.2396 65.3316 35.2225 65.3651 35.122C65.4227 34.9413 65.502 34.7682 65.6012 34.6066C65.59 34.8017 65.5997 34.9975 65.6299 35.1906C65.6315 35.1985 65.6315 35.2049 65.6331 35.2129C65.7927 35.0007 65.89 34.7422 65.8357 34.9401C66.3702 33.7307 66.1628 32.8643 65.322 31.8447C65.1581 31.6255 64.9413 31.4515 64.6918 31.339C64.4376 31.2273 64.1437 31.2564 63.9163 31.4156C63.2179 30.7753 62.2273 30.5639 61.3284 30.8635C60.4525 31.1682 59.7776 31.3469 59.6435 32.266C58.8976 32.1844 58.1711 32.538 57.7752 33.1754C57.3976 33.8125 57.274 34.5685 57.4289 35.2927Z" fill="#2F2E41"/>
<path d="M47.5036 68.9932C47.2029 68.2427 47.5675 67.3905 48.3179 67.0898C48.3979 67.0577 48.4806 67.0328 48.5651 67.0153L49.8421 57.841L51.8881 59.608L50.3312 68.2515C50.4433 69.0566 49.8815 69.8001 49.0764 69.9123C48.4028 70.0061 47.7526 69.6261 47.5036 68.9932Z" fill="#FFB8B8"/>
<path d="M58.7758 44.5035L58.6783 43.6136C58.5864 42.7917 58.0703 42.0782 57.3184 41.7338C57.0329 41.6013 56.7232 41.529 56.4085 41.5213H56.406C55.4591 41.4992 54.5913 42.0469 54.2038 42.9111L52.6439 46.3983L48.7068 58.4845L47.4344 65.0589L48.8093 65.2614L50.8016 65.5538L50.8166 65.5563L51.2741 65.6238L57.6659 48.5156L57.6684 48.5106L58.8633 45.3134L58.7758 44.5035Z" fill="#2F2E41"/>
</g>
<path d="M82.6283 79.6474H41.6325C40.6666 79.6463 39.8838 78.8635 39.8827 77.8976V22.1533C39.8838 21.1873 40.6666 20.4045 41.6325 20.4034H82.6283C83.5943 20.4045 84.3771 21.1873 84.3781 22.1533V77.8976C84.377 78.8635 83.5942 79.6463 82.6283 79.6474ZM41.6325 20.9034C40.9426 20.9042 40.3834 21.4633 40.3826 22.1533V77.8976C40.3834 78.5875 40.9426 79.1466 41.6325 79.1474H82.6283C83.3183 79.1466 83.8774 78.5875 83.8782 77.8976V22.1533C83.8774 21.4633 83.3183 20.9042 82.6283 20.9034H41.6325Z" fill="#E6E6E6"/>
<path d="M16.4983 62.1492H3.24967C1.45493 62.1492 0 60.6942 0 58.8995C0 57.1048 1.45493 55.6498 3.24967 55.6498H16.4983C18.2931 55.6498 19.748 57.1048 19.748 58.8995C19.748 60.6942 18.2931 62.1492 16.4983 62.1492Z" fill="#E6E6E6"/>
<path d="M22.9977 74.8978H9.74906C7.95432 74.8978 6.49939 73.4429 6.49939 71.6482C6.49939 69.8534 7.95432 68.3985 9.74906 68.3985H22.9977C24.7924 68.3985 26.2474 69.8534 26.2474 71.6482C26.2474 73.4429 24.7924 74.8978 22.9977 74.8978Z" fill="#E6E6E6"/>
<path d="M30.0054 72.5138L29.9982 73.0138L55.6004 73.3836L55.6076 72.8837L30.0054 72.5138Z" fill="#E6E6E6"/>
<path d="M56.6781 74.2778C56.1996 74.2782 55.7627 74.0057 55.5526 73.5757C55.2501 72.9553 55.5078 72.2071 56.1283 71.9046C56.7487 71.6021 57.4969 71.8598 57.7994 72.4803C58.1019 73.1007 57.8442 73.8489 57.2238 74.1514C57.0538 74.2343 56.8672 74.2775 56.6781 74.2778ZM56.6755 72.2778C56.2613 72.2782 55.9258 72.6143 55.9262 73.0286C55.9263 73.1422 55.9522 73.2544 56.002 73.3565C56.1839 73.7283 56.6328 73.8822 57.0045 73.7003C57.3763 73.5184 57.5302 73.0696 57.3483 72.6978C57.2226 72.4409 56.9616 72.2779 56.6755 72.2778Z" fill="#E6E6E6"/>
<path d="M24.506 59.2652L24.4988 59.7651L50.101 60.135L50.1082 59.635L24.506 59.2652Z" fill="#E6E6E6"/>
<path d="M51.1787 61.0292C50.7002 61.0296 50.2634 60.7571 50.0532 60.3272C49.7504 59.7067 50.0079 58.9581 50.6285 58.6552C51.2491 58.3524 51.9977 58.6099 52.3005 59.2305C52.6034 59.8511 52.3458 60.5997 51.7253 60.9025C51.555 60.9856 51.3681 61.0289 51.1787 61.0292ZM50.5026 60.108C50.6842 60.4801 51.133 60.6346 51.5052 60.4531C51.8773 60.2715 52.0318 59.8227 51.8502 59.4506C51.6686 59.0784 51.2198 58.924 50.8477 59.1055C50.6691 59.1927 50.5324 59.3472 50.4676 59.5351C50.4029 59.7232 50.4155 59.9292 50.5026 60.108Z" fill="#E6E6E6"/>
<path d="M26.4973 49.6505H13.2487C11.454 49.6505 9.99902 48.1955 9.99902 46.4008C9.99902 44.6061 11.454 43.1511 13.2487 43.1511H26.4973C28.2921 43.1511 29.747 44.6061 29.747 46.4008C29.747 48.1955 28.2921 49.6505 26.4973 49.6505Z" fill="#E6E6E6"/>
<path d="M34.5049 46.7665L34.4977 47.2664L60.0999 47.6363L60.1071 47.1363L34.5049 46.7665Z" fill="#E6E6E6"/>
<path d="M61.1776 48.5305C60.6991 48.5308 60.2623 48.2584 60.0521 47.8285C59.7493 47.2079 60.0068 46.4594 60.6274 46.1565C61.248 45.8536 61.9966 46.1112 62.2994 46.7318C62.6023 47.3524 62.3447 48.101 61.7242 48.4038C61.5539 48.4869 61.367 48.5302 61.1776 48.5305ZM60.5015 47.6093C60.6831 47.9814 61.1319 48.1359 61.5041 47.9544C61.8762 47.7728 62.0307 47.324 61.8491 46.9518C61.6675 46.5797 61.2187 46.4252 60.8466 46.6068C60.668 46.6939 60.5313 46.8485 60.4665 47.0364C60.4018 47.2245 60.4144 47.4305 60.5015 47.6093Z" fill="#E6E6E6"/>
<path d="M128.714 57.5613L128.707 58.0612L154.309 58.4311L154.316 57.9311L128.714 57.5613Z" fill="#3F3D56"/>
<path d="M127.639 59.1674C126.948 59.169 126.386 58.6097 126.384 57.9182C126.383 57.2267 126.942 56.6649 127.634 56.6633C128.325 56.6617 128.887 57.221 128.889 57.9125C128.89 58.3919 128.617 58.8299 128.186 59.0404C128.016 59.1236 127.829 59.167 127.639 59.1674ZM127.638 57.1665C127.223 57.1665 126.887 57.5025 126.887 57.917C126.887 58.3315 127.223 58.6675 127.638 58.6675C128.052 58.6676 128.388 58.3316 128.388 57.9171C128.388 57.8031 128.362 57.6907 128.312 57.5882C128.186 57.3305 127.925 57.1668 127.638 57.1665Z" fill="#3F3D56"/>
<path d="M173.982 87.8965H160.734C158.939 87.8965 157.484 86.4416 157.484 84.6468C157.484 82.8521 158.939 81.3972 160.734 81.3972H173.982C175.777 81.3972 177.232 82.8521 177.232 84.6468C177.232 86.4416 175.777 87.8965 173.982 87.8965Z" fill="#632299"/>
<path d="M128.714 83.3087L128.707 83.8086L154.309 84.1784L154.316 83.6785L128.714 83.3087Z" fill="#3F3D56"/>
<path d="M127.639 84.9146C126.949 84.9153 126.389 84.3562 126.388 83.6657C126.387 82.9753 126.946 82.415 127.637 82.4143C128.115 82.4138 128.552 82.6865 128.762 83.1165C129.064 83.7377 128.805 84.4863 128.184 84.7886C128.014 84.8712 127.828 84.9143 127.639 84.9146ZM127.638 82.9139C127.223 82.9138 126.887 83.2498 126.887 83.6643C126.887 84.0788 127.223 84.4149 127.637 84.4149C128.052 84.415 128.388 84.079 128.388 83.6645C128.388 83.5506 128.362 83.4381 128.312 83.3357C128.186 83.0778 127.925 82.9141 127.638 82.9139Z" fill="#3F3D56"/>
<path d="M94.7328 87.8662C95.3662 87.3578 95.4675 86.4322 94.9591 85.7988C94.9098 85.7375 94.8557 85.6802 94.7973 85.6275L97.1782 78.6952L95.4227 77.5652L92.655 85.8195C92.1579 86.4603 92.2745 87.3828 92.9153 87.8799C93.4515 88.2958 94.2029 88.2902 94.7328 87.8662Z" fill="#FFB6B6"/>
<path d="M96.7648 68.7391C96.3442 70.5179 95.7166 72.0717 95.8016 72.8179C95.8857 73.5621 94.9763 74.2772 95.2653 74.8654C95.5538 75.4551 94.6659 75.5182 94.9059 76.4672C95.1469 77.4183 95.3034 77.6217 95.1 77.7782C94.8952 77.9342 93.8129 81.5642 93.8129 81.5642L94.4477 81.7968L96.3001 82.4726L100.653 75.3128L100.64 66.5244L99.5592 66.4897C99.2997 66.587 99.0123 66.7038 98.7256 66.8445C97.8501 67.2672 96.9643 67.8919 96.7648 68.7391Z" fill="#632299"/>
<path d="M112.794 124.503H115.058L116.135 115.771H112.794L112.794 124.503Z" fill="#FFB6B6"/>
<path d="M115.811 124.707V123.172L115.216 123.208L112.794 123.352L112.233 123.386L111.805 128.526L111.782 128.802H113.389L113.441 128.528L113.674 127.284L114.277 128.528L114.409 128.802H118.67C119.198 128.798 119.625 128.371 119.627 127.843C119.807 127.003 116.263 125.187 115.811 124.707Z" fill="#2F2E41"/>
<path d="M86.2739 122.039L88.243 123.156L93.4884 116.093L90.5825 114.445L86.2739 122.039Z" fill="#FFB6B6"/>
<path d="M88.7984 123.704L89.5543 122.37L89.0223 122.108L86.8428 121.038L86.3377 120.79L83.8559 124.423L83.2722 125.277L83.9324 125.652L84.6691 126.071L85.6679 124.892L85.557 126.574L89.0376 128.551H89.0396L89.2634 128.677C89.7237 128.937 90.3077 128.775 90.5684 128.316C91.1387 127.673 88.9534 124.347 88.7984 123.704Z" fill="#2F2E41"/>
<path d="M101.561 81.6422C98.5271 83.6524 95.5241 102.965 96.3122 102.649L89.1624 115.974L92.8169 118.445L106.031 97.3019L110.423 106.655L112.237 121.012L116.787 120.687C115.605 104.513 112.653 87.4547 110.206 80.8563L101.561 81.6422Z" fill="#2F2E41"/>
<path d="M99.2573 83.0765L99.2243 83.2007C102.431 84.9849 111.209 82.9182 111.209 82.9182L109.794 78.3595L111.704 68.2323C111.694 66.5975 110.36 65.2805 108.725 65.2908C108.658 65.2913 108.591 65.294 108.524 65.299L106.22 63.5918L102.939 63.705L100.744 66.129L99.4334 66.5974L98.4148 66.9606C98.2088 67.146 97.984 67.3599 97.7687 67.5957L99.38 77.1847L100.065 80.052L99.2573 83.0765Z" fill="#632299"/>
<path d="M104.582 63.2114C106.907 63.2114 108.792 61.3268 108.792 59.002C108.792 56.6772 106.907 54.7925 104.582 54.7925C102.258 54.7925 100.373 56.6772 100.373 59.002C100.373 61.3268 102.258 63.2114 104.582 63.2114Z" fill="#FFB6B6"/>
<path d="M99.0476 57.5355C99.0602 57.5403 99.0712 57.545 99.0838 57.5498C99.1078 57.5604 99.1324 57.5694 99.1576 57.5767C99.3181 57.6357 99.4855 57.6741 99.6556 57.6911C99.7282 57.699 99.8011 57.7028 99.8741 57.7027C99.9677 57.703 100.061 57.6969 100.154 57.6845C100.257 57.6719 100.359 57.6511 100.459 57.6224C100.507 57.6097 100.553 57.5946 100.599 57.5772C101.233 57.3522 101.724 56.843 101.926 56.2019V56.2003C101.937 56.1694 101.946 56.138 101.953 56.1061C102 55.9292 102.024 55.7469 102.024 55.5639V55.5608C102.025 55.1145 101.886 54.6792 101.626 54.3163C101.469 54.0943 101.288 54.0572 101.39 53.8033C101.714 52.9933 100.389 52.3312 99.607 52.6874C99.5787 52.6847 99.5504 52.6836 99.5221 52.684C98.9955 52.6827 98.8001 53.4603 98.4862 53.8981L98.4953 53.9011C98.7059 53.9748 98.8169 54.2053 98.7431 54.416C98.7019 54.5338 98.6085 54.6259 98.4902 54.6655C98.2811 54.7336 98.0699 54.7938 97.8566 54.846C97.1529 55.6771 97.9596 58.1084 99.0476 57.5355Z" fill="#2F2E41"/>
<path d="M99.4349 59.7641C99.6351 60.6645 100.115 61.4784 100.806 62.0894C101.518 62.665 104.868 64.0285 105.151 62.8612C104.962 63.6766 105.076 63.9881 105.38 64.2797C105.432 64.2091 105.487 64.1417 105.544 64.0758C105.753 63.8349 106.004 63.6337 106.284 63.4819C106.291 63.9744 106.256 64.4666 106.178 64.953C106.304 65.0686 106.423 65.1907 106.536 65.3186C107.077 63.704 108.265 61.77 107.405 60.2998C107.064 59.7164 107.348 59.6365 107.651 59.5695C108.178 59.4526 108.469 57.2875 108.595 56.7612C108.75 56.1013 108.812 55.3422 108.403 54.8004C107.994 54.2586 106.96 54.2356 106.751 54.8811L106.315 54.289C105.752 53.0504 104.258 53.2981 102.908 53.4582C101.538 53.6657 100.359 54.5356 99.7563 55.783C99.1763 57.0289 99.0623 58.4414 99.4349 59.7641Z" fill="#2F2E41"/>
<path d="M101.564 54.1063C101.623 55.6331 100.765 57.0474 99.3832 57.7002C99.1088 57.8245 98.8698 57.4176 99.1462 57.2924C100.381 56.7227 101.15 55.4639 101.093 54.1051C101.077 53.8018 101.549 53.8039 101.564 54.1063Z" fill="#632299"/>
<path d="M120.576 56.4351C119.794 56.6523 119.335 57.4628 119.553 58.2454C119.574 58.3212 119.601 58.3952 119.634 58.4667L114.71 63.8968L115.877 65.6279L121.678 59.1357C122.388 58.743 122.644 57.8494 122.252 57.1398C121.923 56.546 121.231 56.2547 120.576 56.4351Z" fill="#FFB6B6"/>
<path d="M106.582 74.0517C106.582 74.0517 110.073 74.6787 111.162 73.2088C112.25 71.7389 113.44 70.5598 113.656 69.8413C113.873 69.1229 114.99 68.8259 114.957 68.1706C114.924 67.5153 115.766 67.808 115.919 66.8401C116.072 65.8721 116.009 65.6226 116.259 65.5595C116.508 65.4964 118.934 62.5888 118.934 62.5888L117.008 60.7723L110.183 65.6334L106.582 74.0517Z" fill="#632299"/>
<path d="M80.3187 126.968C77.5786 126.642 75.1322 125.097 73.6609 122.762C72.7161 121.23 72.2287 119.411 71.7572 117.651C71.62 117.139 71.4781 116.609 71.3279 116.099C70.9804 114.958 71.3622 113.72 72.292 112.973C73.1909 112.219 74.4578 112.089 75.4917 112.643L75.602 112.701L75.7953 117.046C76.0817 116.464 76.7102 115.149 77.2082 113.836L77.2499 113.726L77.3454 113.795C78.3465 114.514 79.253 115.356 80.0437 116.302C82.8692 119.737 84.0408 124.241 83.247 128.618L83.223 128.747L80.3187 126.968Z" fill="#F2F2F2"/>
<path d="M62.6032 128.703C62.6027 128.866 62.7351 129 62.8989 129H135.466C135.63 129 135.763 128.867 135.763 128.703C135.763 128.538 135.63 128.405 135.466 128.405H62.9006C62.7368 128.405 62.6036 128.537 62.6032 128.701V128.703Z" fill="#CCCCCC"/>
<path d="M40.8923 4.32209C42.0598 4.32209 43.0062 3.35456 43.0062 2.16105C43.0062 0.967533 42.0598 0 40.8923 0C39.7248 0 38.7783 0.967533 38.7783 2.16105C38.7783 3.35456 39.7248 4.32209 40.8923 4.32209Z" fill="#3F3D56"/>
<path d="M48.195 4.32209C49.3625 4.32209 50.3089 3.35456 50.3089 2.16105C50.3089 0.967533 49.3625 0 48.195 0C47.0275 0 46.0811 0.967533 46.0811 2.16105C46.0811 3.35456 47.0275 4.32209 48.195 4.32209Z" fill="#3F3D56"/>
<path d="M55.4976 4.32209C56.6651 4.32209 57.6115 3.35456 57.6115 2.16105C57.6115 0.967533 56.6651 0 55.4976 0C54.3301 0 53.3837 0.967533 53.3837 2.16105C53.3837 3.35456 54.3301 4.32209 55.4976 4.32209Z" fill="#3F3D56"/>
<path d="M63.8247 3.86904C63.7598 3.86904 63.6949 3.84389 63.646 3.79385L62.2196 2.33574C62.1245 2.23859 62.1245 2.08333 62.2196 1.98617L63.646 0.52819C63.7428 0.429567 63.9012 0.42798 63.9995 0.524285C64.0982 0.620833 64.0999 0.779141 64.0034 0.877764L62.748 2.16096L64.0034 3.44427C64.0999 3.5429 64.0982 3.70121 63.9995 3.79775C63.9509 3.84536 63.8878 3.86904 63.8247 3.86904Z" fill="#3F3D56"/>
<path d="M66.2214 3.8691C66.1583 3.8691 66.0952 3.84542 66.0466 3.79781C65.9479 3.70127 65.9462 3.54308 66.0427 3.44433L67.298 2.16102L66.0427 0.877825C65.9462 0.779202 65.9479 0.620894 66.0466 0.524346C66.1451 0.427676 66.3036 0.429508 66.4001 0.528251L67.8264 1.98623C67.9214 2.08339 67.9214 2.23865 67.8264 2.33581L66.4001 3.79391C66.3512 3.84395 66.2864 3.8691 66.2214 3.8691Z" fill="#3F3D56"/>
<path d="M140.841 0.250183H138.189C137.887 0.250183 137.642 0.495153 137.642 0.797627V3.45236C137.642 3.75483 137.887 3.9998 138.189 3.9998H140.841C141.144 3.9998 141.391 3.75483 141.391 3.45236V0.797627C141.391 0.495153 141.144 0.250183 140.841 0.250183Z" fill="#3F3D56"/>
<path d="M134.342 0.250183H131.69C131.387 0.250183 131.142 0.495153 131.142 0.797627V3.45236C131.142 3.75483 131.387 3.9998 131.69 3.9998H134.342C134.644 3.9998 134.892 3.75483 134.892 3.45236V0.797627C134.892 0.495153 134.644 0.250183 134.342 0.250183Z" fill="#3F3D56"/>
<path d="M146.966 0.375244H144.313C144.011 0.375244 143.766 0.620214 143.766 0.922688V3.57742C143.766 3.87989 144.011 4.12486 144.313 4.12486H146.966C147.268 4.12486 147.516 3.87989 147.516 3.57742V0.922688C147.516 0.620214 147.268 0.375244 146.966 0.375244Z" fill="#3F3D56"/>
<path d="M106.989 1.38507H85.789C85.4191 1.38507 85.1216 1.68504 85.1216 2.05251C85.1216 2.41998 85.4191 2.71994 85.789 2.71994H106.989C107.357 2.71994 107.657 2.41997 107.657 2.05251C107.657 1.68506 107.357 1.38507 106.989 1.38507Z" fill="#3F3D56"/>
</g>
<defs>
<clipPath id="clip0_5_155">
<rect width="177.232" height="129" fill="white"/>
</clipPath>
</defs>
</svg>
