<svg width="150" height="135" viewBox="0 0 150 135" fill="none" xmlns="http://www.w3.org/2000/svg">
<g clip-path="url(#clip0_4_63)">
<path d="M94.32 123.041L92.0525 123.04L90.9738 113.082L94.3205 113.082L94.32 123.041Z" fill="#9E616A"/>
<path d="M94.8984 125.543L87.5869 125.543V125.438C87.587 124.578 87.8868 123.754 88.4205 123.146C88.9542 122.539 89.678 122.197 90.4327 122.197H90.4329L94.8985 122.197L94.8984 125.543Z" fill="#2F2E41"/>
<path d="M86.1821 123.041L83.9146 123.04L82.8358 113.082L86.1824 113.082L86.1821 123.041Z" fill="#9E616A"/>
<path d="M86.7603 125.543L79.4489 125.543V125.438C79.4489 124.578 79.7487 123.754 80.2824 123.146C80.8161 122.539 81.5399 122.197 82.2947 122.197H82.2948L86.7604 122.197L86.7603 125.543Z" fill="#2F2E41"/>
<path d="M59.773 53.259C59.9542 53.5428 60.1878 53.7779 60.4575 53.9477C60.7271 54.1175 61.0262 54.2179 61.3336 54.2419C61.6411 54.2659 61.9494 54.2129 62.2368 54.0865C62.5243 53.9602 62.784 53.7636 62.9975 53.5106L67.4842 55.5056L69.214 52.6967L62.8431 49.9807C62.4461 49.6005 61.9403 49.3993 61.4217 49.4152C60.9031 49.4311 60.4076 49.6631 60.0292 50.0672C59.6507 50.4713 59.4156 51.0194 59.3684 51.6077C59.3212 52.1959 59.4651 52.7835 59.773 53.259Z" fill="#9E616A"/>
<path d="M86.1533 70.2775L80.246 72.4716L82.2193 120.107L86.7786 120.235L89.1118 86.6422L89.6416 120.103L95.2789 120.457L97.3571 70.2775H86.1533Z" fill="#2F2E41"/>
<path d="M82.1675 42.1971L97.3292 38.4462L99.0152 53.3109L97.6113 60.4134L98.1736 71.2071C98.1736 71.2071 86.1851 78.0012 80.246 72.4715C80.246 72.4715 85.0195 58.1954 82.2526 51.5125L82.1675 42.1971Z" fill="#E4E4E4"/>
<path d="M84.7933 44.2996L82.1675 42.1971C82.1675 42.1971 82.0124 41.9525 79.8242 44.8651C77.6361 47.7778 73.1971 52.4109 73.1971 52.4109L65.7989 49.2519L64.451 54.9222L73.0493 59.4845L85.2224 50.2278L84.7933 44.2996Z" fill="#E4E4E4"/>
<path d="M98.1765 76.7792C98.4551 76.6293 98.7015 76.4117 98.8982 76.1417C99.095 75.8717 99.2374 75.5558 99.3154 75.2164C99.3934 74.877 99.405 74.5222 99.3495 74.177C99.2941 73.8319 99.1728 73.5048 98.9943 73.2188L101.552 68.5712L99.4501 66.1129L95.9197 72.734C95.5176 73.1073 95.2497 73.6355 95.1669 74.2187C95.084 74.8018 95.1919 75.3993 95.4701 75.8979C95.7482 76.3966 96.1774 76.7617 96.6762 76.9241C97.175 77.0865 97.7088 77.035 98.1765 76.7792Z" fill="#9E616A"/>
<path d="M94.9644 41.3745L97.3292 38.4462C97.3292 38.4462 99.9641 37.4014 102.117 42.8002C104.27 48.199 106.674 59.1499 106.674 59.1499L101.052 71.4796L96.6865 69.2584L101.052 59.0628L96.4323 51.5125L94.9644 41.3745Z" fill="#E4E4E4"/>
<path d="M90.9545 37.227C93.3395 35.7425 94.216 32.3377 92.9123 29.6221C91.6085 26.9065 88.6182 25.9085 86.2332 27.3929C83.8482 28.8774 82.9717 32.2822 84.2754 34.9978C85.5792 37.7134 88.5695 38.7114 90.9545 37.227Z" fill="#9E616A"/>
<path d="M92.7439 27.299C92.5111 26.1862 91.6963 25.308 90.7591 24.8961C89.8218 24.4842 88.7781 24.4882 87.7877 24.6798C86.1437 24.9979 84.6085 25.8051 83.0958 26.6043L84.2618 27.2394L82.6528 27.3445L83.8961 28.0766C83.5641 28.3642 83.3115 28.7543 83.1684 29.2005C83.0252 29.6467 82.9975 30.1303 83.0885 30.5939C83.1525 30.8973 83.3235 31.2316 83.5973 31.2421C83.9284 31.2548 84.1012 30.8155 84.333 30.546C84.6413 30.1875 85.1283 30.1079 85.5649 30.1755C86.0016 30.243 86.4158 30.4343 86.8466 30.5401C87.3913 30.6693 87.9542 30.6622 88.4962 30.5192C89.0383 30.3762 89.5466 30.1007 89.9859 29.7119L91.5362 33.9625C91.5216 33.8022 91.5397 33.6402 91.5892 33.4892C91.6386 33.3382 91.718 33.2023 91.8213 33.092C91.9245 32.9817 92.0487 32.9001 92.1842 32.8535C92.3197 32.8069 92.4628 32.7966 92.6024 32.8234C92.742 32.8502 92.8742 32.9134 92.9888 33.008C93.1034 33.1026 93.1972 33.226 93.263 33.3688C93.3287 33.5115 93.3646 33.6696 93.3678 33.8307C93.371 33.9918 93.3415 34.1516 93.2815 34.2976C93.9527 33.145 94.4926 31.8355 94.5111 30.4528C94.5296 29.07 93.9273 27.6134 92.8248 27.0332" fill="#2F2E41"/>
<path d="M35.7076 113.164L33.6112 116.917L34.8323 112.031C32.2541 108.968 28.6849 106.727 28.6849 106.727C28.6849 106.727 24.29 114.952 25.4729 120.011C26.6558 125.07 29.7102 126.036 32.9685 125.048C36.2268 124.06 38.4552 121.493 37.2723 116.434C37.009 115.308 36.4371 114.203 35.7076 113.164Z" fill="#F2F2F2"/>
<path d="M32.9339 117.291L32.9922 117.54C33.6569 120.443 33.7564 122.834 33.2863 124.682C33.2799 124.709 33.2721 124.736 33.2656 124.763L33.156 124.726L33.051 124.689C33.5835 122.686 33.3458 120.155 32.7666 117.623C32.7486 117.541 32.7304 117.458 32.71 117.376C32.4565 116.307 32.1459 115.241 31.8078 114.217C31.7822 114.138 31.7553 114.058 31.7284 113.977C31.276 112.628 30.7817 111.358 30.3237 110.264C30.2916 110.186 30.2585 110.109 30.2256 110.033C29.4438 108.184 28.781 106.874 28.6321 106.584C28.6145 106.549 28.6042 106.529 28.6019 106.525L28.6971 106.46L28.6979 106.459L28.7942 106.394C28.7965 106.398 28.8313 106.463 28.8923 106.585C29.1226 107.039 29.7343 108.274 30.4396 109.935C30.4711 110.01 30.5042 110.087 30.5363 110.165C30.9088 111.053 31.3037 112.051 31.6792 113.112C31.774 113.378 31.8646 113.641 31.9511 113.902C31.9791 113.982 32.006 114.062 32.0315 114.142C32.3971 115.248 32.6979 116.298 32.9339 117.291Z" fill="white"/>
<path d="M30.4396 109.935C30.3696 109.968 30.2984 110.002 30.2256 110.033C30.028 110.118 29.8267 110.192 29.6225 110.254C28.7524 110.519 27.8412 110.559 26.9559 110.37C26.9256 110.449 26.8954 110.528 26.8644 110.609C27.798 110.818 28.7611 110.781 29.6802 110.501C29.8982 110.435 30.113 110.356 30.3237 110.264C30.3954 110.233 30.4665 110.199 30.5363 110.165C31.113 109.885 31.6491 109.507 32.1262 109.044C32.0637 108.991 32.0026 108.938 31.9428 108.886C31.4899 109.318 30.9833 109.672 30.4396 109.935Z" fill="white"/>
<path d="M31.9511 113.902C31.8775 113.929 31.8032 113.954 31.7284 113.977C31.7059 113.985 31.6821 113.992 31.6593 113.999C30.7162 114.285 29.7263 114.307 28.7741 114.063C27.8219 113.82 26.9356 113.317 26.1908 112.599C26.1645 112.685 26.1381 112.771 26.1132 112.858C26.8832 113.58 27.7932 114.082 28.7677 114.323C29.7423 114.565 30.7533 114.538 31.7171 114.246C31.7474 114.237 31.7778 114.228 31.8078 114.217C31.8834 114.193 31.9577 114.168 32.0316 114.142C33.1735 113.723 34.1853 112.939 34.9461 111.883C34.8944 111.821 34.8427 111.759 34.7898 111.697C34.0522 112.731 33.0656 113.497 31.9511 113.902Z" fill="white"/>
<path d="M32.934 117.291C32.8598 117.321 32.7851 117.349 32.7101 117.376C32.6296 117.404 32.5489 117.431 32.4676 117.456C31.1999 117.838 29.8575 117.743 28.6413 117.184C27.4252 116.625 26.4008 115.633 25.7214 114.356C25.696 114.471 25.6703 114.584 25.6471 114.698C26.3707 115.959 27.4248 116.927 28.6596 117.467C29.8943 118.006 31.2469 118.089 32.5253 117.703C32.6066 117.678 32.6876 117.652 32.7667 117.623C32.8431 117.597 32.9179 117.569 32.9923 117.54C34.4933 116.939 35.7376 115.711 36.4732 114.104C36.4291 114.02 36.382 113.937 36.3346 113.854C35.6367 115.459 34.4169 116.692 32.934 117.291Z" fill="white"/>
<path d="M117.481 113.555L115.415 117.254L116.618 112.439C114.078 109.421 110.56 107.212 110.56 107.212C110.56 107.212 106.229 115.317 107.395 120.303C108.561 125.288 111.571 126.24 114.782 125.267C117.993 124.293 120.189 121.763 119.023 116.778C118.763 115.668 118.2 114.579 117.481 113.555Z" fill="#F2F2F2"/>
<path d="M114.747 117.622L114.805 117.868C115.46 120.728 115.558 123.085 115.095 124.906C115.088 124.933 115.081 124.959 115.074 124.985L114.966 124.949L114.863 124.913C115.388 122.939 115.153 120.445 114.583 117.95C114.565 117.869 114.547 117.787 114.527 117.706C114.277 116.652 113.971 115.602 113.638 114.593C113.612 114.515 113.586 114.436 113.559 114.357C113.114 113.027 112.626 111.776 112.175 110.697C112.144 110.621 112.111 110.545 112.079 110.47C111.308 108.648 110.655 107.357 110.508 107.071C110.491 107.036 110.481 107.017 110.478 107.013L110.572 106.949L110.573 106.947L110.668 106.884C110.67 106.888 110.704 106.952 110.765 107.072C110.992 107.519 111.594 108.737 112.289 110.373C112.32 110.447 112.353 110.523 112.385 110.6C112.752 111.475 113.141 112.459 113.511 113.504C113.604 113.766 113.694 114.025 113.779 114.282C113.806 114.361 113.833 114.44 113.858 114.519C114.218 115.609 114.515 116.644 114.747 117.622Z" fill="white"/>
<path d="M112.289 110.373C112.22 110.406 112.15 110.439 112.079 110.47C111.884 110.554 111.685 110.627 111.484 110.688C110.627 110.949 109.729 110.988 108.856 110.802C108.826 110.88 108.797 110.958 108.766 111.037C109.686 111.243 110.635 111.207 111.541 110.931C111.756 110.866 111.968 110.788 112.175 110.697C112.246 110.667 112.316 110.634 112.385 110.6C112.953 110.324 113.481 109.952 113.951 109.496C113.89 109.443 113.83 109.391 113.771 109.339C113.324 109.765 112.825 110.114 112.289 110.373Z" fill="white"/>
<path d="M113.779 114.282C113.706 114.31 113.633 114.334 113.559 114.357C113.537 114.365 113.514 114.372 113.491 114.379C112.562 114.66 111.586 114.682 110.648 114.442C109.71 114.202 108.836 113.706 108.102 112.999C108.076 113.084 108.05 113.168 108.026 113.254C108.785 113.965 109.681 114.46 110.642 114.698C111.602 114.936 112.598 114.91 113.548 114.622C113.578 114.613 113.608 114.604 113.638 114.593C113.712 114.57 113.785 114.545 113.858 114.519C114.983 114.106 115.981 113.334 116.73 112.293C116.679 112.232 116.628 112.17 116.576 112.109C115.849 113.128 114.877 113.883 113.779 114.282Z" fill="white"/>
<path d="M114.747 117.622C114.674 117.652 114.601 117.68 114.527 117.706C114.447 117.734 114.368 117.761 114.288 117.785C113.039 118.162 111.716 118.068 110.517 117.517C109.319 116.966 108.309 115.988 107.64 114.73C107.615 114.843 107.589 114.955 107.566 115.067C108.28 116.309 109.318 117.264 110.535 117.795C111.752 118.327 113.085 118.408 114.345 118.028C114.425 118.004 114.505 117.978 114.583 117.95C114.658 117.924 114.732 117.897 114.805 117.868C116.284 117.275 117.51 116.065 118.235 114.482C118.192 114.399 118.145 114.317 118.099 114.235C117.411 115.817 116.209 117.032 114.747 117.622Z" fill="white"/>
<path d="M74.7234 21.6762C74.7234 12.83 69.3069 5.65875 62.6254 5.65875C55.9438 5.65875 50.5273 12.83 50.5273 21.6762C50.5273 29.6993 54.9828 36.3444 60.7966 37.5116V39.021C60.7966 39.3062 60.8961 39.5797 61.0732 39.7813C61.2502 39.9829 61.4904 40.0962 61.7409 40.0962H63.5099C63.7603 40.0962 64.0005 39.9829 64.1776 39.7813C64.3547 39.5797 64.4541 39.3062 64.4541 39.021V37.5116C70.2679 36.3444 74.7234 29.6993 74.7234 21.6762Z" fill="#632299"/>
<path d="M60.5057 38.8029C60.8843 38.3981 61.3353 38.0914 61.8277 37.9038C62.3202 37.7163 62.8425 37.6523 63.3587 37.7162C63.879 37.7849 64.3782 37.9902 64.8169 38.3159C65.2556 38.6417 65.6218 39.079 65.8868 39.5934C66.1519 40.0925 66.3184 40.6513 66.3748 41.2311C66.4312 41.8108 66.3761 42.3975 66.2135 42.9506C65.8954 44.0536 65.2195 44.9716 64.5265 45.7989C63.7995 46.6668 63.0089 47.4673 62.3254 48.382C61.1984 49.8994 60.4113 51.7053 60.0319 53.645C59.6525 55.5847 59.6919 57.6002 60.1468 59.5188C60.7465 61.9505 61.9847 64.1154 63.6955 65.7232C63.9127 65.9253 64.1364 66.1178 64.3666 66.3007C64.6329 66.513 64.8851 66.0156 64.621 65.8051C62.7637 64.309 61.391 62.1578 60.7154 59.6842C60.2031 57.7566 60.1375 55.7108 60.5251 53.7458C60.9127 51.7808 61.7402 49.9634 62.9272 48.4703C63.6482 47.564 64.4554 46.7526 65.1761 45.846C65.8666 44.9775 66.496 43.9976 66.7657 42.8502C66.9023 42.2668 66.9361 41.6584 66.8653 41.0601C66.7945 40.4617 66.6205 39.8852 66.3532 39.3638C66.0872 38.8307 65.7273 38.3659 65.2962 37.9986C64.865 37.6313 64.3719 37.3693 63.8477 37.2291C62.7931 36.9681 61.6907 37.1854 60.7746 37.8349C60.5501 37.9979 60.3406 38.1862 60.1493 38.397C59.9152 38.6537 60.2719 39.0593 60.5057 38.8029Z" fill="#3F3D56"/>
<path d="M28.1039 14.9688C24.4022 5.27957 15.4687 0.363318 8.15033 3.98807C0.831999 7.61282 -2.09983 18.4059 1.60188 28.0952C4.95917 36.8829 12.62 41.7442 19.4762 39.8687L20.1078 41.522C20.2271 41.8343 20.4505 42.0799 20.7289 42.2046C21.0072 42.3294 21.3177 42.3232 21.592 42.1874L23.5296 41.2277C23.8039 41.0918 24.0196 40.8374 24.1291 40.5205C24.2387 40.2036 24.2333 39.8501 24.1139 39.5377L23.4823 37.8844C29.3617 33.4521 31.4612 23.7565 28.1039 14.9688Z" fill="#632299"/>
<path d="M19.6609 41.3915C19.9014 40.7606 20.2556 40.1942 20.7006 39.7292C21.1456 39.2641 21.6715 38.9107 22.2441 38.6918C22.8064 38.4762 23.4033 38.4031 23.993 38.4777C24.5827 38.5523 25.1509 38.7728 25.6579 39.1236C26.1803 39.476 26.6306 39.951 26.979 40.5172C27.3274 41.0833 27.5657 41.7275 27.6782 42.4068C27.9366 43.9811 27.5174 45.5846 27.041 47.0503C26.5417 48.5868 25.9194 50.079 25.5722 51.6745C25.089 53.917 25.0792 56.258 25.5437 58.5056C26.0081 60.7532 26.9336 62.8436 28.2444 64.6055C29.8951 66.7837 32.0693 68.3646 34.4992 69.1537C34.7973 69.2494 35.0984 69.331 35.4019 69.401C35.7187 69.4741 35.8542 68.9209 35.5359 68.8476C33.0078 68.255 30.7037 66.7826 28.9426 64.6339C27.0757 62.3357 25.9479 59.385 25.7432 56.2631C25.6336 54.6814 25.7609 53.09 26.1197 51.5568C26.5027 49.9391 27.1511 48.4244 27.6399 46.8481C28.1063 45.344 28.4368 43.7287 28.1438 42.137C27.8744 40.7355 27.1275 39.5131 26.0671 38.7381C25.5589 38.3566 24.9891 38.0938 24.391 37.9652C23.7928 37.8365 23.1782 37.8445 22.5828 37.9887C21.3668 38.3023 20.3015 39.1316 19.6035 40.3079C19.4337 40.6012 19.2901 40.9131 19.1748 41.2389C19.0509 41.5798 19.5384 41.7285 19.6609 41.3915Z" fill="#3F3D56"/>
<path d="M131.508 132.001L134.225 132.001L135.517 120.068L131.507 120.068L131.508 132.001Z" fill="#FFB6B6"/>
<path d="M130.814 130.991L136.165 130.991H136.166C137.07 130.991 137.937 131.4 138.577 132.128C139.216 132.856 139.576 133.844 139.576 134.873V135L130.815 135L130.814 130.991Z" fill="#2F2E41"/>
<path d="M115.425 129.37L118.016 130.303L122.409 119.37L118.586 117.993L115.425 129.37Z" fill="#FFB6B6"/>
<path d="M115.032 128.169L120.134 130.007L120.134 130.007C120.996 130.317 121.715 131.005 122.132 131.919C122.548 132.833 122.629 133.898 122.357 134.88L122.323 135L113.97 131.992L115.032 128.169Z" fill="#2F2E41"/>
<path d="M121.543 77.5013L120.035 82.3433L119.993 108.484L115.717 126.381L120.966 128.049L126.764 111.173L128.623 96.3507L131.074 111.259L130.737 128.98H136.244L136.66 101.673C136.776 94.0037 135.598 86.3807 133.188 79.2182L121.543 77.5013Z" fill="#2F2E41"/>
<path d="M119.747 57.8875H128.649L132.368 62.1225L133.48 79.6282L120.035 82.0916L115.717 65.3887L118.068 58.29L119.747 57.8875Z" fill="#E4E4E4"/>
<path d="M116.546 65.5557L102.841 59.6843L102.484 57.2572L111.127 48.9297L114.004 51.3866L108.79 57.8875L118.068 58.29L116.546 65.5557Z" fill="#E4E4E4"/>
<path d="M112.79 52.3359C114.014 52.3359 115.006 51.2061 115.006 49.8124C115.006 48.4187 114.014 47.2889 112.79 47.2889C111.566 47.2889 110.573 48.4187 110.573 49.8124C110.573 51.2061 111.566 52.3359 112.79 52.3359Z" fill="#FFB6B6"/>
<path d="M117.93 52.9914L118.931 47.8496C119.107 46.944 119.437 46.0867 119.904 45.3267C120.371 44.5666 120.965 43.9188 121.651 43.4202C122.338 42.9216 123.104 42.582 123.906 42.4208C124.709 42.2596 125.531 42.28 126.326 42.4808C127.121 42.6815 127.874 43.0588 128.541 43.5909C129.208 44.1231 129.776 44.7997 130.213 45.5822C130.651 46.3646 130.948 47.2375 131.089 48.1509C131.23 49.0643 131.211 50.0004 131.034 50.9055L130.032 56.0474C129.984 56.2928 129.853 56.5064 129.667 56.6414C129.48 56.7764 129.255 56.8219 129.039 56.7677L118.562 54.1222C118.347 54.0675 118.159 53.9178 118.041 53.7058C117.922 53.4938 117.882 53.2369 117.93 52.9914Z" fill="#2F2E41"/>
<path d="M124.829 54.9296C127.24 54.1343 128.628 51.2644 127.929 48.5196C127.231 45.7748 124.71 44.1945 122.3 44.9898C119.889 45.7851 118.501 48.655 119.2 51.3998C119.898 54.1446 122.419 55.7249 124.829 54.9296Z" fill="#FFB6B6"/>
<path d="M117.419 47.8994C117.702 46.4547 118.477 45.1968 119.573 44.4016C120.67 43.6064 121.998 43.3389 123.268 43.6577L124.171 43.8858C125.44 44.2079 126.545 45.0899 127.243 46.3383C127.941 47.5867 128.176 49.0995 127.896 50.5449L127.876 50.6477L125.968 50.1658L125.721 47.9257L125.186 49.9685L124.2 49.7194L124.075 48.5892L123.806 49.6199L117.399 48.0022L117.419 47.8994Z" fill="#2F2E41"/>
<path d="M122.008 55.599C121.945 55.4382 121.924 55.2605 121.946 55.0864C121.968 54.9122 122.033 54.7488 122.133 54.6148C123.494 52.7836 125.58 49.2919 124.261 46.4807L124.166 46.2787L129.33 47.5826L127.611 56.4102L122.736 56.1681C122.687 56.1657 122.638 56.1583 122.59 56.1462C122.462 56.1139 122.342 56.0474 122.241 55.9523C122.14 55.8571 122.06 55.7361 122.008 55.599Z" fill="#2F2E41"/>
<path d="M128.295 57.9935L142.792 60.3406L143.603 62.6219L136.752 72.8856L133.475 71.1978L137.327 63.5639L128.193 65.4624L128.295 57.9935Z" fill="#E4E4E4"/>
<path d="M150 24.7178C150 14.1515 143.53 5.58588 135.55 5.58588C127.569 5.58588 121.099 14.1515 121.099 24.7178C121.099 34.3009 126.421 42.2382 133.365 43.6323V45.4353C133.365 45.7759 133.484 46.1025 133.696 46.3434C133.907 46.5842 134.194 46.7195 134.493 46.7195H136.606C136.905 46.7195 137.192 46.5842 137.404 46.3434C137.615 46.1025 137.734 45.7759 137.734 45.4353V43.6323C144.678 42.2382 150 34.301 150 24.7178Z" fill="#632299"/>
<path d="M132.983 45.1353C133.442 44.6443 133.989 44.2726 134.586 44.0461C135.184 43.8195 135.817 43.7435 136.443 43.8232C137.058 43.9056 137.648 44.1463 138.169 44.5269C138.69 44.9076 139.128 45.4182 139.45 46.0201C139.777 46.6142 139.988 47.282 140.067 47.9776C140.147 48.6733 140.093 49.3803 139.909 50.0499C139.553 51.3643 138.77 52.4649 137.954 53.4513C137.084 54.5037 136.131 55.466 135.299 56.5594C133.943 58.354 132.99 60.4968 132.522 62.8036C132.053 65.1104 132.084 67.5121 132.612 69.8022C133.317 72.7457 134.808 75.3672 136.878 77.3046C137.13 77.5376 137.388 77.7598 137.654 77.9712C137.921 78.1833 138.173 77.686 137.909 77.4756C135.692 75.6915 134.05 73.129 133.235 70.1807C132.615 67.8794 132.528 65.4353 132.98 63.0841C133.432 60.733 134.409 58.5542 135.816 56.7581C136.671 55.6711 137.634 54.7027 138.499 53.6262C139.327 52.5953 140.088 51.438 140.428 50.0758C140.599 49.3877 140.649 48.6679 140.575 47.9578C140.5 47.2478 140.302 46.5616 139.993 45.939C139.686 45.3024 139.266 44.745 138.76 44.3018C138.254 43.8587 137.673 43.5393 137.054 43.3637C135.795 43.0343 134.473 43.2839 133.376 44.0583C133.106 44.2521 132.856 44.477 132.627 44.7294C132.393 44.9865 132.75 45.3921 132.983 45.1353Z" fill="#3F3D56"/>
<path d="M134.731 75.8043C135.955 75.8043 136.947 74.6745 136.947 73.2808C136.947 71.8871 135.955 70.7573 134.731 70.7573C133.507 70.7573 132.515 71.8871 132.515 73.2808C132.515 74.6745 133.507 75.8043 134.731 75.8043Z" fill="#FFB6B6"/>
<path d="M111.636 50.5208C111.52 50.7301 111.238 50.6997 111.08 50.5688C110.86 50.3872 110.931 50.0373 111.082 49.8306C111.563 49.1736 112.358 49.8673 112.465 50.5197C112.505 50.8379 112.462 51.1623 112.342 51.4529C112.221 51.7434 112.028 51.9873 111.787 52.1542C111.238 52.5242 110.526 52.3387 110.055 51.8958C109.071 50.972 109.339 49.1223 110.431 48.4539C111.129 48.0274 112.01 48.2146 112.697 48.5719C113.47 48.9741 114.135 49.5906 114.85 50.1044C116.419 51.2226 118.193 51.9126 120.035 52.1205C120.358 52.1579 120.355 51.5837 120.035 51.5465C119.015 51.4264 118.013 51.1517 117.056 50.7297C116.109 50.2928 115.211 49.7312 114.379 49.0565C113.537 48.3995 112.657 47.7612 111.615 47.6526C111.195 47.5967 110.769 47.6686 110.381 47.8609C109.993 48.0532 109.656 48.3591 109.405 48.7475C109.183 49.095 109.033 49.4966 108.969 49.9208C108.906 50.345 108.929 50.7803 109.038 51.1925C109.169 51.6235 109.397 52.0074 109.701 52.305C110.005 52.6026 110.372 52.8033 110.766 52.8866C111.145 52.9682 111.537 52.913 111.887 52.7288C112.237 52.5445 112.528 52.2404 112.72 51.8588C113.103 51.1036 113.091 50.0893 112.511 49.4632C112.345 49.271 112.138 49.1325 111.909 49.0618C111.681 48.991 111.44 48.9906 111.211 49.0606C111.001 49.1416 110.815 49.2907 110.678 49.4898C110.541 49.6889 110.457 49.9292 110.438 50.1814C110.382 51.1616 111.604 51.6518 112.071 50.8105C112.245 50.4973 111.809 50.209 111.636 50.5208Z" fill="#3F3D56"/>
<path d="M10.7868 81.3664L10.1211 82.3174L7.76636 80.7314L8.43208 79.7802L10.7868 81.3664Z" fill="#E4E4E4"/>
<path d="M13.2437 85.4529L13.8318 86.4522L11.3581 87.8532L10.77 86.854L13.2437 85.4529Z" fill="#E4E4E4"/>
<path d="M15.8044 81.1089L16.9796 81.1561L16.8627 83.9559L15.6875 83.9087L15.8044 81.1089Z" fill="#E4E4E4"/>
<path d="M38.5113 5.60393L37.8456 6.55498L35.4908 4.96894L36.1566 4.0177L38.5113 5.60393Z" fill="#E4E4E4"/>
<path d="M40.9685 9.69049L41.5566 10.6898L39.0828 12.0908L38.4948 11.0915L40.9685 9.69049Z" fill="#E4E4E4"/>
<path d="M43.5292 5.34644L44.7044 5.39369L44.5874 8.19346L43.4122 8.1462L43.5292 5.34644Z" fill="#E4E4E4"/>
<path d="M103.874 15.5525L103.209 16.5036L100.854 14.9175L101.519 13.9663L103.874 15.5525Z" fill="#E4E4E4"/>
<path d="M106.331 19.6391L106.919 20.6384L104.446 22.0394L103.858 21.0401L106.331 19.6391Z" fill="#E4E4E4"/>
<path d="M108.892 15.295L110.067 15.3423L109.95 18.1421L108.775 18.0948L108.892 15.295Z" fill="#E4E4E4"/>
<path d="M83.879 1.58623L83.2133 2.53728L80.8585 0.95124L81.5242 0L83.879 1.58623Z" fill="#E4E4E4"/>
<path d="M86.336 5.67279L86.9241 6.67205L84.4504 8.07308L83.8623 7.07382L86.336 5.67279Z" fill="#E4E4E4"/>
<path d="M88.8967 1.32874L90.0719 1.37599L89.955 4.17576L88.7798 4.1285L88.8967 1.32874Z" fill="#E4E4E4"/>
<path d="M104.208 73.084L103.542 74.188L105.897 76.029L106.563 74.925L104.208 73.084Z" fill="#E4E4E4"/>
<path d="M106.546 81.2946L107.134 82.4544L109.608 80.8282L109.02 79.6684L106.546 81.2946Z" fill="#E4E4E4"/>
<path d="M111.464 77.8758L112.639 77.9307L112.756 74.681L111.581 74.6261L111.464 77.8758Z" fill="#E4E4E4"/>
<path d="M54.2561 123.185L56.2918 122.826L54.8961 104.307L50.3594 105.263L54.2561 123.185Z" fill="#FFB6B6"/>
<path d="M53.6339 122.52L57.6431 121.814C58.3208 121.694 59.0124 121.886 59.5656 122.348C60.1188 122.809 60.4885 123.501 60.5933 124.273L60.6061 124.368L54.0419 125.523L53.6339 122.52Z" fill="#2F2E41"/>
<path d="M32.8599 122.955L34.9179 123.055L37.4212 106.602L32.8844 106.603L32.8599 122.955Z" fill="#FFB6B6"/>
<path d="M32.3635 122.165L36.4167 122.361H36.4168C37.1019 122.395 37.7472 122.736 38.211 123.311C38.6747 123.886 38.9189 124.648 38.8897 125.428L38.8861 125.523L32.2499 125.201L32.3635 122.165Z" fill="#2F2E41"/>
<path d="M36.912 69.3515C36.8148 69.3204 36.7154 69.2993 36.615 69.2885L37.898 57.3309L42.2515 46.8336C42.5253 46.1732 42.5691 45.4192 42.3739 44.7236C42.1788 44.0279 41.7591 43.4424 41.1998 43.0852C40.6404 42.728 39.9828 42.6256 39.3597 42.7986C38.7366 42.9717 38.1943 43.4074 37.8423 44.0178C36.7013 45.9959 35.8382 48.1645 35.2841 50.4454L33.4551 57.9751L34.7925 70.8877C34.7412 71.2516 34.7834 71.6247 34.9139 71.962C35.0445 72.2993 35.2579 72.5865 35.5284 72.789C35.7989 72.9915 36.1151 73.1006 36.4388 73.1033C36.7625 73.106 37.08 73.0021 37.3531 72.8042C37.6262 72.6062 37.8433 72.3227 37.9781 71.9876C38.113 71.6525 38.16 71.2801 38.1134 70.9154C38.0668 70.5506 37.9286 70.2089 37.7154 69.9315C37.5023 69.654 37.2233 69.4526 36.912 69.3515Z" fill="#FFB6B6"/>
<path d="M39.5552 58.343L34.0551 51.1788L36.7798 43.8815C37.1366 42.9259 37.8073 42.167 38.6487 41.7666C39.4901 41.3662 40.4356 41.3561 41.2835 41.7384C42.1313 42.1207 42.8144 42.8652 43.1869 43.813C43.5594 44.7608 43.5918 45.8368 43.2772 46.8114L39.5552 58.343Z" fill="#2F2E41"/>
<path d="M48.6983 35.5039C50.0215 32.7476 49.1319 29.2918 46.7112 27.7851C44.2904 26.2784 41.2553 27.2913 39.932 30.0476C38.6087 32.8039 39.4984 36.2597 41.9191 37.7664C44.3398 39.2731 47.375 38.2602 48.6983 35.5039Z" fill="#FFB6B6"/>
<path d="M45.1504 25.8657H41.9236C39.8082 25.8657 38.0933 28.0624 38.0933 30.7722L38.2426 37.3449C40.5284 37.6687 42.7641 38.3495 44.8866 39.3682L45.1878 37.9038L45.7819 39.8324C46.3102 40.1239 46.8341 40.4427 47.3535 40.7886C46.7473 37.5456 46.4978 34.31 46.914 31.7966H48.0069V30.4348L48.3779 31.7966H50.3593C50.3593 31.0178 50.2246 30.2465 49.9628 29.527C49.701 28.8074 49.3174 28.1536 48.8337 27.6028C48.35 27.0521 47.7758 26.6152 47.1438 26.3172C46.5118 26.0191 45.8345 25.8657 45.1504 25.8657Z" fill="#2F2E41"/>
<path d="M55.6719 105.313L55.2044 105.441L54.812 97.1322L51.9555 72.2607L48.679 62.7904L50.2753 56.1899C50.2753 56.1899 52.1236 51.5982 47.5028 48.0588L43.8062 40.98C41.2527 39.0789 39.1518 40.322 38.0319 43.5532C37.056 46.3687 36.2985 49.9306 36.749 53.607C37.7582 61.8425 38.5973 62.7904 38.5973 62.7904C38.5973 62.7904 32.2963 70.7301 33.6405 80.87L32.8913 107.124L32.2059 107.092L32.1309 109.177L38.1187 109.456L38.1938 107.371L37.6971 107.348L39.8575 96.9409L43.0501 83.1659L48.595 100.002L50.46 106.742L49.8456 106.91L50.2748 108.94L56.101 107.342L55.6719 105.313Z" fill="#2F2E41"/>
<path d="M59.7869 58.1688C59.719 58.2539 59.6581 58.3457 59.6047 58.4432L50.7826 51.7935L44.4799 42.6687C44.0834 42.0946 43.5105 41.7132 42.8767 41.6012C42.2429 41.4892 41.5954 41.655 41.0648 42.0652C40.5342 42.4754 40.1599 43.0995 40.0175 43.8115C39.8751 44.5235 39.9751 45.2706 40.2974 45.902C41.3418 47.948 42.66 49.7961 44.2046 51.3797L49.3036 56.6071L60.0469 61.0142C60.3099 61.2291 60.6219 61.3528 60.9453 61.3706C61.2686 61.3883 61.5896 61.2992 61.8696 61.1141C62.1495 60.929 62.3766 60.6558 62.5233 60.3272C62.6701 59.9987 62.7303 59.6288 62.6968 59.2622C62.6633 58.8956 62.5375 58.5478 62.3345 58.2606C62.1314 57.9735 61.8599 57.7593 61.5524 57.6438C61.245 57.5283 60.9148 57.5164 60.6016 57.6096C60.2884 57.7027 60.0054 57.8969 59.7869 58.1688Z" fill="#FFB6B6"/>
<path d="M52.3182 50.5577L44.2317 52.9594L39.7155 46.9233C39.1241 46.1329 38.8274 45.1107 38.8888 44.0747C38.9501 43.0387 39.3647 42.071 40.0439 41.3782C40.7231 40.6853 41.6133 40.3222 42.5244 40.3663C43.4355 40.4103 44.2954 40.8581 44.9206 41.614L52.3182 50.5577Z" fill="#2F2E41"/>
<path d="M114.997 125.718H6.23376C6.1807 125.718 6.12981 125.694 6.09229 125.651C6.05477 125.609 6.03369 125.551 6.03369 125.49C6.03369 125.43 6.05477 125.372 6.09229 125.329C6.12981 125.287 6.1807 125.263 6.23376 125.263H114.997C115.05 125.263 115.101 125.287 115.139 125.329C115.176 125.372 115.197 125.43 115.197 125.49C115.197 125.551 115.176 125.609 115.139 125.651C115.101 125.694 115.05 125.718 114.997 125.718Z" fill="#CACACA"/>
</g>
<defs>
<clipPath id="clip0_4_63">
<rect width="150" height="135" fill="white"/>
</clipPath>
</defs>
</svg>
