<svg width="131" height="145" viewBox="0 0 131 145" fill="none" xmlns="http://www.w3.org/2000/svg">
<g clip-path="url(#clip0_4_135)">
<rect width="131" height="145" fill="white"/>
<path d="M71.723 79.4686C72.1347 81.6516 73.604 83.0675 75.005 82.6299C76.4061 82.1922 77.2077 80.0659 76.7959 77.8829C76.6424 77.0076 76.2818 76.2044 75.7433 75.548L73.8842 66.332L69.5374 67.8457L71.8326 76.7708C71.5865 77.6743 71.55 78.6011 71.7278 79.4686H71.723Z" fill="#F8A8AB"/>
<path d="M61.9255 140.065H67.0277V132.417H61.9255V140.065Z" fill="#F8A8AB"/>
<path d="M66.4624 144.446C65.5901 144.529 61.2238 144.894 61.0045 143.836C60.8047 142.866 61.0995 141.852 61.1409 141.713C61.56 137.3 61.7159 137.251 61.811 137.223C61.9596 137.177 62.3933 137.395 63.0975 137.874L63.1413 137.905L63.1511 137.959C63.1633 138.029 63.4752 139.648 64.9542 139.398C65.9678 139.228 66.2967 138.992 66.4015 138.876C66.3162 138.835 66.209 138.762 66.1335 138.639C66.0238 138.459 66.0043 138.227 66.0774 137.949C66.2675 137.215 66.8376 136.132 66.862 136.088L66.9278 135.964L72.7268 140.098L76.3086 141.18C76.5791 141.262 76.7959 141.465 76.9056 141.738C77.0566 142.119 76.964 142.562 76.6716 142.84C76.0211 143.458 74.7297 144.516 73.3725 144.647C73.0119 144.683 72.5343 144.696 71.9983 144.696C69.7591 144.696 66.4892 144.452 66.4648 144.446H66.4624Z" fill="#2F2E43"/>
<path d="M47.791 140.065H52.8932V132.417H47.791V140.065Z" fill="#F8A8AB"/>
<path d="M52.3279 144.446C51.4556 144.529 47.0892 144.894 46.8699 143.836C46.6701 142.866 46.965 141.852 47.0064 141.713C47.4255 137.3 47.5814 137.251 47.6764 137.223C47.8251 137.177 48.2588 137.395 48.963 137.874L49.0068 137.905L49.0166 137.959C49.0287 138.029 49.3406 139.648 50.8196 139.398C51.8332 139.228 52.1622 138.992 52.267 138.876C52.1817 138.835 52.0745 138.762 51.9989 138.639C51.8893 138.459 51.8698 138.227 51.9429 137.949C52.1329 137.215 52.7031 136.132 52.7275 136.088L52.7933 135.964L58.5923 140.098L62.1741 141.18C62.4445 141.262 62.6614 141.465 62.771 141.738C62.9221 142.119 62.8295 142.562 62.5371 142.84C61.8866 143.458 60.5952 144.516 59.238 144.647C58.8774 144.683 58.3998 144.696 57.8638 144.696C55.6246 144.696 52.3547 144.452 52.3303 144.446H52.3279Z" fill="#2F2E43"/>
<path d="M51.9258 25.8151L59.8373 28.5619V16.5296H52.6592L51.9258 25.8151Z" fill="#F8A8AB"/>
<path d="M58.8579 19.8607C63.2112 19.8607 66.7402 16.1322 66.7402 11.5329C66.7402 6.93353 63.2112 3.20502 58.8579 3.20502C54.5046 3.20502 50.9756 6.93353 50.9756 11.5329C50.9756 16.1322 54.5046 19.8607 58.8579 19.8607Z" fill="#F8A8AB"/>
<path d="M56.8501 12.1841L57.9368 13.5768L59.9031 9.94193C59.9031 9.94193 62.4128 10.0784 62.4128 8.1116C62.4128 6.14484 64.7154 6.0882 64.7154 6.0882C64.7154 6.0882 67.9731 0.0772108 61.2238 1.66041C61.2238 1.66041 56.5431 -1.72737 54.2137 1.16871C54.2137 1.16871 47.0746 4.96581 49.1189 11.5792L52.513 18.3959L53.283 16.8539C53.283 16.8539 52.8176 10.377 56.8526 12.1816L56.8501 12.1841Z" fill="#2F2E43"/>
<path d="M0 144.694C0 144.864 0.129138 145 0.289952 145H130.71C130.871 145 131 144.864 131 144.694C131 144.524 130.871 144.387 130.71 144.387H0.289952C0.129138 144.387 0 144.524 0 144.694Z" fill="#484565"/>
<path d="M80.1146 89.8457L65.2198 84.7871C63.3826 84.1642 61.409 85.2068 60.7828 87.1375L54.053 107.871C53.3659 109.987 54.5793 112.263 56.6479 112.741L73.7673 116.698C75.6483 117.133 77.5148 115.9 77.968 113.923L82.4732 94.2915C82.9093 92.3865 81.8811 90.4455 80.1146 89.8457Z" fill="#E2E3E4"/>
<path d="M78.6039 94.2194L77.6438 94.0392C78.2579 90.3528 79.1058 80.5241 75.6824 79.3193C74.0231 78.7349 72.3516 79.7569 70.7167 82.3596C69.4326 84.4061 68.6821 86.6715 68.6748 86.6947L67.7538 86.3574C67.8854 85.9584 71.0164 76.5906 75.9894 78.3411C80.904 80.071 78.6989 93.6401 78.6014 94.2168L78.6039 94.2194Z" fill="#2F2E43"/>
<path d="M67.3104 65.4362H40.6859L47.2013 136.407L54.7547 135.892L55.1275 84.782L59.8812 107.212L61.2725 135.506L68.1559 135.892L68.9551 103.706L67.3104 65.4362Z" fill="#2F2E43"/>
<path d="M51.4946 21.4156L60.5099 23.7325L68.2168 58.9206L67.3104 65.4361L44.7355 69.4726L40.6859 65.4361L51.4946 21.4156Z" fill="#632299"/>
<path d="M51.48 19.6548L48.3977 23.3077L42.1455 24.8935L31.4855 74.9688L52.0258 78.6449L57.7469 27.6454L51.48 19.6548Z" fill="#2F2E43"/>
<path d="M60.505 21.48L58.8969 27.5347L66.3406 81.8319H70.1806L68.4092 28.6983L63.195 24.322L60.505 21.48Z" fill="#2F2E43"/>
<path d="M65.3173 28.0264L68.4093 28.6983C68.4093 28.6983 69.764 29.2234 70.2562 33.2908C70.7459 37.3582 70.8337 51.0174 70.8337 51.0174L76.0918 73.0535L70.1197 75.1335L67.3079 63.2763L65.3148 28.0238L65.3173 28.0264Z" fill="#2F2E43"/>
<path d="M60.159 25.1998L58.6629 28.0985L61.655 62.0998L58.1634 65.5262L54.9203 62.365L57.2911 28.2298L53.8361 25.1998L55.0446 24.2757L56.2921 25.8563L58.7872 25.3311L59.7837 23.7479L60.159 25.1998Z" fill="#2F2E43"/>
<path d="M45.464 70.9245C46.7189 72.7137 48.6194 73.3289 49.7086 72.3018C50.7977 71.2746 50.6637 68.9912 49.4089 67.1995C48.9167 66.4761 48.2661 65.9149 47.5108 65.5648L42.1016 58.071L38.783 61.4022L44.4675 68.4352C44.6112 69.3645 44.9524 70.2166 45.464 70.9219V70.9245Z" fill="#F8A8AB"/>
<path d="M44.6162 25.7147L42.1455 24.8935C42.1455 24.8935 38.7976 25.7713 37.689 30.1888L32.2773 51.71L41.4559 68.7312L46.3607 62.4397L41.741 46.8137L44.6186 25.7147H44.6162Z" fill="#2F2E43"/>
</g>
<defs>
<clipPath id="clip0_4_135">
<rect width="131" height="145" fill="white"/>
</clipPath>
</defs>
</svg>
