<svg width="22" height="26" viewBox="0 0 22 26" fill="none" xmlns="http://www.w3.org/2000/svg">
<path d="M11 12.5714C12.6671 12.5714 14.2659 11.9092 15.4447 10.7304C16.6235 9.55159 17.2857 7.95279 17.2857 6.28571C17.2857 4.61864 16.6235 3.01984 15.4447 1.84104C14.2659 0.662243 12.6671 0 11 0C9.33292 0 7.73413 0.662243 6.55533 1.84104C5.37653 3.01984 4.71429 4.61864 4.71429 6.28571C4.71429 7.95279 5.37653 9.55159 6.55533 10.7304C7.73413 11.9092 9.33292 12.5714 11 12.5714ZM8.7558 14.9286C3.91875 14.9286 0 18.8473 0 23.6844C0 24.4897 0.653125 25.1429 1.45848 25.1429H20.5415C21.3469 25.1429 22 24.4897 22 23.6844C22 18.8473 18.0813 14.9286 13.2442 14.9286H8.7558Z" fill="#673AB7"/>
</svg>
