<svg width="497" height="361" viewBox="0 0 497 361" fill="none" xmlns="http://www.w3.org/2000/svg">
<g clip-path="url(#clip0_33_636)">
<path d="M483.911 167.289C488.258 167.289 491.781 164.042 491.781 160.036C491.781 156.031 488.258 152.784 483.911 152.784C479.564 152.784 476.04 156.031 476.04 160.036C476.04 164.042 479.564 167.289 483.911 167.289Z" fill="#F2F2F2"/>
<path d="M119.723 169.075C119.082 169.489 118.351 169.768 117.58 169.893C116.809 170.019 116.018 169.987 115.262 169.8C114.506 169.613 113.804 169.275 113.205 168.811C112.606 168.347 112.125 167.768 111.795 167.114L92.8676 168.88L97.451 160.808L114.722 160.369C115.951 159.931 117.312 159.924 118.546 160.349C119.78 160.774 120.802 161.602 121.419 162.675C122.035 163.748 122.203 164.992 121.89 166.172C121.578 167.351 120.807 168.384 119.723 169.075Z" fill="#FFB6B6"/>
<path d="M65.1076 177.018L23.4022 161.093C20.0979 159.828 17.4734 157.406 16.1044 154.36C14.7355 151.313 14.734 147.89 16.1003 144.843C16.8588 143.156 18.0109 141.645 19.4748 140.415C20.9387 139.184 22.6786 138.266 24.5708 137.726C26.463 137.185 28.4613 137.035 30.4236 137.285C32.386 137.536 34.2644 138.182 35.9254 139.177L69.5285 159.308L104.499 157.676L107.118 167.711L65.1076 177.018Z" fill="#673AB7"/>
<path d="M57.4247 348.214H64.1019L67.2785 324.481L57.4235 324.482L57.4247 348.214Z" fill="#FFB6B6"/>
<path d="M55.1632 345.179L65.7188 344.598V348.766L75.7542 355.152C76.2499 355.468 76.6232 355.921 76.8197 356.445C77.0161 356.97 77.0253 357.539 76.8461 358.069C76.6668 358.599 76.3084 359.062 75.8232 359.391C75.338 359.72 74.7514 359.897 74.149 359.897H61.5822L59.4162 355.775L58.5704 359.897H53.8322L55.1632 345.179Z" fill="#2F2E41"/>
<path d="M14.4635 348.214H21.1407L24.3173 324.481L14.4623 324.482L14.4635 348.214Z" fill="#FFB6B6"/>
<path d="M12.2021 345.179L22.7577 344.598V348.766L32.7931 355.152C33.2888 355.468 33.6622 355.921 33.8586 356.445C34.055 356.97 34.0643 357.539 33.885 358.069C33.7058 358.599 33.3474 359.062 32.8622 359.391C32.3769 359.72 31.7903 359.897 31.1879 359.897H18.6211L16.4551 355.775L15.6093 359.897H10.8711L12.2021 345.179Z" fill="#2F2E41"/>
<path d="M48.219 216.965L74.252 264.557C75.6787 267.157 76.1199 270.122 75.5052 272.98C74.9762 275.423 74.1643 277.805 73.0836 280.088L69.5903 318.28L66.4602 330.259L55.1995 331.144C55.1995 331.144 56.0713 321.103 53.0199 307.022C49.9686 292.941 55.1995 272.434 55.1995 272.434C55.1995 272.434 45.6035 257.963 34.6939 250.721C23.7842 243.48 48.219 216.965 48.219 216.965Z" fill="#2F2E41"/>
<path d="M20.297 195.453C20.297 195.453 14.8967 204.273 10.9069 209.02C7.22095 213.319 5.4366 218.744 5.91223 224.206C6.2997 228.111 7.78903 232.323 11.5729 235.659C11.5729 235.659 14.1883 241.689 12.8806 244.908V273.466C12.8806 273.466 5.87809 307.185 11.9868 317.238L14.6242 339.802C14.6242 339.802 23.8814 342.196 24.3173 338.18C24.3173 338.18 25.5278 329.353 25.994 326.536L26.3452 297.677C26.4172 293.928 27.6801 290.279 29.9777 287.184C31.7939 284.724 33.6102 280.902 33.8524 275.469L48.219 216.965L51.4173 196.528L20.297 195.453Z" fill="#2F2E41"/>
<path d="M12.2561 164.021L17.8402 189.749L5.60629 216.032L51.3096 199.797L51.9302 198.246L53.4421 192.962L51.6507 176.511C52.2799 175.303 61.2372 167.677 51.8691 154.27L41.7496 132.383L22.7952 132.117L22.7165 132.19C18.2597 136.29 14.9724 141.341 13.1474 146.895C11.3223 152.449 11.0162 158.332 12.2561 164.021Z" fill="#673AB7"/>
<path d="M40.0514 239.641C39.427 239.207 38.9137 238.651 38.5476 238.014C38.1814 237.376 37.9714 236.673 37.9323 235.952C37.8932 235.232 38.026 234.513 38.3212 233.845C38.6165 233.177 39.0671 232.577 39.6413 232.087L32.0038 216.032L41.7473 217.572L47.5062 232.582C48.3357 233.525 48.7609 234.716 48.7011 235.929C48.6413 237.142 48.1007 238.293 47.1818 239.163C46.2629 240.033 45.0295 240.562 43.7153 240.651C42.4011 240.739 41.0975 240.38 40.0514 239.641Z" fill="#FFB6B6"/>
<path d="M15.0715 194.188L18.7077 152.725C18.9997 149.438 20.6946 146.393 23.4205 144.257C26.1463 142.121 29.6805 141.068 33.2476 141.33C35.2223 141.477 37.1377 142.023 38.8577 142.929C40.5777 143.835 42.0602 145.078 43.1999 146.572C44.3397 148.065 45.1087 149.771 45.4524 151.569C45.7961 153.367 45.706 155.212 45.1886 156.975L34.72 192.625L47.1473 222.79L37.5878 228.169L15.0715 194.188Z" fill="#673AB7"/>
<path d="M0.768066 133.439L47.0337 124.723C48.3078 120.807 50.7484 117.212 44.0102 111.096C42.9662 106.391 39.9815 102.243 35.6845 99.5247C31.3875 96.8067 26.1136 95.7312 20.9733 96.5246C10.3538 95.6537 4.38803 102.609 4.41883 111.944L0.768066 133.439Z" fill="#2F2E41"/>
<path d="M27.7466 127.55C36.4322 127.55 43.4732 121.062 43.4732 113.059C43.4732 105.055 36.4322 98.5674 27.7466 98.5674C19.061 98.5674 12.02 105.055 12.02 113.059C12.02 121.062 19.061 127.55 27.7466 127.55Z" fill="#FFB8B8"/>
<path d="M15.8909 100.936C18.0131 98.0074 21.3052 95.9707 25.05 95.2695L28.0157 94.7108C31.7912 93.9995 35.7188 94.6993 38.9343 96.6564C42.1498 98.6134 44.3899 101.667 45.1618 105.146C43.0309 107.703 30.3962 109.641 22.8647 110.486C24.9738 117.499 33.0822 123.252 32.205 127.517L2.54751 133.104L1.94115 130.371C-3.2621 118.842 3.996 107.039 15.8909 100.936Z" fill="#2F2E41"/>
<path d="M0.639725 134.219L46.9054 125.503C48.1795 121.587 50.62 117.991 43.8819 111.876C42.8379 107.171 39.8531 103.023 35.5562 100.305C31.2592 97.5866 25.9853 96.5111 20.8449 97.3045C10.2255 96.4336 4.25969 103.388 4.29049 112.723L0.639725 134.219Z" fill="#2F2E41"/>
<path d="M27.6182 128.33C36.3038 128.33 43.3449 121.842 43.3449 113.839C43.3449 105.835 36.3038 99.3473 27.6182 99.3473C18.9327 99.3473 11.8916 105.835 11.8916 113.839C11.8916 121.842 18.9327 128.33 27.6182 128.33Z" fill="#FFB8B8"/>
<path d="M15.7625 101.716C17.8847 98.7873 21.1769 96.7506 24.9216 96.0494L27.8874 95.4906C31.6629 94.7794 35.5904 95.4792 38.8059 97.4363C42.0214 99.3933 44.2615 102.447 45.0335 105.926C42.9026 108.483 30.2678 110.421 22.7363 111.266C24.8455 118.278 32.9538 124.032 32.0766 128.297L2.41917 133.884L1.81279 131.151C-3.39046 119.622 3.86765 107.819 15.7625 101.716Z" fill="#2F2E41"/>
<path d="M244.355 238.657H124.401C121.077 238.654 117.891 237.436 115.541 235.27C113.191 233.105 111.869 230.169 111.865 227.106V82.8469C111.869 79.7844 113.191 76.8483 115.541 74.6828C117.891 72.5173 121.077 71.2993 124.401 71.2958H244.355C247.678 71.2993 250.865 72.5173 253.215 74.6828C255.565 76.8483 256.887 79.7844 256.891 82.8469V227.106C256.887 230.169 255.565 233.105 253.215 235.27C250.865 237.436 247.678 238.654 244.355 238.657Z" fill="#F0F0F0"/>
<path d="M244.355 239.215H124.401C120.917 239.211 117.577 237.934 115.113 235.664C112.65 233.394 111.264 230.316 111.26 227.106V82.8469C111.264 79.6366 112.65 76.5587 115.113 74.2887C117.577 72.0186 120.917 70.7416 124.401 70.738H244.355C247.839 70.7416 251.179 72.0185 253.643 74.2886C256.106 76.5587 257.492 79.6365 257.496 82.8469V227.106C257.492 230.316 256.106 233.394 253.643 235.664C251.179 237.934 247.839 239.211 244.355 239.215ZM124.401 71.8537C121.238 71.857 118.206 73.0163 115.969 75.0772C113.732 77.1381 112.474 79.9323 112.471 82.8469V227.106C112.474 230.02 113.732 232.815 115.969 234.876C118.206 236.937 121.238 238.096 124.401 238.099H244.355C247.518 238.096 250.55 236.937 252.787 234.876C255.024 232.815 256.282 230.02 256.285 227.106V82.8469C256.282 79.9323 255.024 77.138 252.787 75.0771C250.55 73.0162 247.518 71.857 244.355 71.8537H124.401Z" fill="#673AB7"/>
<path d="M439.229 238.657H319.275C315.951 238.654 312.765 237.436 310.415 235.27C308.065 233.105 306.743 230.169 306.739 227.106V82.8469C306.743 79.7844 308.065 76.8483 310.415 74.6828C312.765 72.5173 315.951 71.2993 319.275 71.2958H439.229C442.552 71.2993 445.738 72.5173 448.088 74.6828C450.439 76.8483 451.76 79.7844 451.764 82.8469V227.106C451.76 230.169 450.439 233.105 448.088 235.27C445.738 237.436 442.552 238.654 439.229 238.657Z" fill="#F0F0F0"/>
<path d="M496.399 20.3916H82.0957C81.935 20.3883 81.7821 20.3272 81.6697 20.2213C81.5574 20.1155 81.4944 19.9733 81.4944 19.8252C81.4944 19.6771 81.5574 19.5349 81.6697 19.429C81.7821 19.3231 81.935 19.262 82.0957 19.2587H496.399C496.559 19.262 496.712 19.3231 496.825 19.429C496.937 19.5349 497 19.6771 497 19.8252C497 19.9733 496.937 20.1155 496.825 20.2213C496.712 20.3272 496.559 20.3883 496.399 20.3916Z" fill="#CACACA"/>
<path d="M95.6299 12.4615C99.2829 12.4615 102.244 9.67192 102.244 6.23077C102.244 2.78961 99.2829 0 95.6299 0C91.9768 0 89.0155 2.78961 89.0155 6.23077C89.0155 9.67192 91.9768 12.4615 95.6299 12.4615Z" fill="#3F3D56"/>
<path d="M118.48 12.4615C122.133 12.4615 125.094 9.67192 125.094 6.23077C125.094 2.78961 122.133 0 118.48 0C114.827 0 111.865 2.78961 111.865 6.23077C111.865 9.67192 114.827 12.4615 118.48 12.4615Z" fill="#3F3D56"/>
<path d="M141.329 12.4615C144.983 12.4615 147.944 9.67192 147.944 6.23077C147.944 2.78961 144.983 0 141.329 0C137.676 0 134.715 2.78961 134.715 6.23077C134.715 9.67192 137.676 12.4615 141.329 12.4615Z" fill="#3F3D56"/>
<path d="M482.708 3.81116H466.473C466.151 3.80462 465.846 3.6824 465.621 3.47066C465.396 3.25891 465.27 2.97449 465.27 2.6783C465.27 2.3821 465.396 2.09768 465.621 1.88594C465.846 1.67419 466.151 1.55196 466.473 1.54543H482.708C483.03 1.55196 483.335 1.67419 483.56 1.88594C483.785 2.09768 483.911 2.3821 483.911 2.6783C483.911 2.97449 483.785 3.25891 483.56 3.47066C483.335 3.6824 483.03 3.80462 482.708 3.81116Z" fill="#3F3D56"/>
<path d="M482.708 8.05942H466.473C466.151 8.05288 465.846 7.93065 465.621 7.71891C465.396 7.50717 465.27 7.22275 465.27 6.92656C465.27 6.63036 465.396 6.34593 465.621 6.13419C465.846 5.92245 466.151 5.80022 466.473 5.79369H482.708C483.03 5.80022 483.335 5.92245 483.56 6.13419C483.785 6.34593 483.911 6.63036 483.911 6.92656C483.911 7.22275 483.785 7.50717 483.56 7.71891C483.335 7.93065 483.03 8.05288 482.708 8.05942Z" fill="#3F3D56"/>
<path d="M482.708 12.3077H466.473C466.151 12.3011 465.846 12.1789 465.621 11.9672C465.396 11.7554 465.27 11.471 465.27 11.1748C465.27 10.8786 465.396 10.5942 465.621 10.3824C465.846 10.1707 466.151 10.0485 466.473 10.0419H482.708C483.03 10.0485 483.335 10.1707 483.56 10.3824C483.785 10.5942 483.911 10.8786 483.911 11.1748C483.911 11.471 483.785 11.7554 483.56 11.9672C483.335 12.1789 483.03 12.3011 482.708 12.3077Z" fill="#3F3D56"/>
<path d="M446.07 68.6718L446.058 68.6819C444.898 67.5944 443.328 66.9598 441.674 66.9096C440.02 66.8595 438.408 67.3976 437.173 68.4125C435.937 69.4274 435.173 70.8413 435.038 72.3613C434.903 73.8812 435.408 75.3908 436.448 76.5772L436.436 76.5872L445.026 85.4652L454.66 77.5498C455.938 76.5001 456.711 75.0258 456.809 73.4511C456.907 71.8764 456.322 70.3304 455.183 69.1531C454.044 67.9758 452.444 67.2637 450.735 67.1735C449.026 67.0832 447.348 67.6222 446.07 68.6718Z" fill="#D1D3D4"/>
<path d="M144.2 161.567C144 161.157 143.897 160.712 143.9 160.262C143.902 159.812 144.01 159.368 144.216 158.96L151.407 144.715C152.116 142.508 153.746 140.651 155.939 139.55C158.132 138.449 160.71 138.195 163.106 138.842C165.503 139.489 167.523 140.986 168.724 143.003C169.925 145.021 170.209 147.395 169.514 149.605L167.111 165.211C167.042 165.656 166.87 166.082 166.606 166.461C166.343 166.84 165.994 167.161 165.583 167.404C165.172 167.648 164.709 167.806 164.226 167.87C163.743 167.933 163.25 167.9 162.782 167.772L146.332 163.281C145.864 163.153 145.431 162.934 145.063 162.638C144.695 162.342 144.401 161.977 144.2 161.567Z" fill="#3F3D56"/>
<path d="M222.424 154.46L205.974 158.951C205.506 159.079 205.013 159.112 204.53 159.049C204.047 158.985 203.584 158.827 203.173 158.584C202.762 158.34 202.413 158.019 202.15 157.64C201.886 157.261 201.714 156.835 201.645 156.39L199.242 140.784C198.547 138.574 198.831 136.2 200.032 134.182C201.233 132.165 203.253 130.668 205.65 130.021C208.046 129.374 210.623 129.628 212.817 130.729C215.01 131.83 216.639 133.687 217.349 135.894L224.539 150.139C224.745 150.547 224.853 150.991 224.856 151.441C224.859 151.891 224.756 152.336 224.555 152.746C224.355 153.156 224.06 153.521 223.692 153.817C223.325 154.113 222.892 154.332 222.424 154.46Z" fill="#3F3D56"/>
<path d="M157.709 141.738L170.609 133.093L191.72 127.689L209.311 130.931L210.346 139.889C211.603 150.785 211.057 161.793 208.725 172.538L208.297 180.818L162.986 182.264L158.295 174.699C158.295 174.699 147.74 164.973 155.95 154.166L157.709 141.738Z" fill="#3F3D56"/>
<path d="M407.189 124.706V134.314L406.17 146.051C406.17 146.051 405.848 156.3 405.459 164.385C405.224 169.299 404.959 173.412 404.729 173.944C404.445 174.594 404.512 176.37 404.676 178.234C404.868 180.39 405.185 182.666 405.238 183.427C405.339 184.848 404.522 190.954 404.522 190.954C404.522 190.954 403.609 206.264 402.283 207.486C400.957 208.708 402.283 212.183 402.283 212.183C396.066 216.407 388.215 211.244 388.215 211.244C389.949 208.699 387.196 191.321 387.196 191.321C387.196 191.321 386.793 185.388 385.976 183.795C385.159 182.201 384.952 172.243 384.952 172.243V157.496C384.952 157.496 382.809 154.476 382.507 153.068C382.204 151.66 382.507 146.684 382.507 146.684L380.268 139.733L378.735 145.179C378.735 145.179 374.766 160.396 374.05 162.273C373.661 163.528 373.806 164.872 374.454 166.032C374.454 166.032 375.477 168.927 374.454 170.256C373.818 171.088 373.331 172.008 373.013 172.983C373.013 172.983 372.489 178.526 371.571 180.509C370.653 182.493 369.841 184.937 369.841 184.937C369.841 184.937 370.057 188.682 369.14 189.528C368.222 190.374 367.92 194.602 367.92 194.602C367.92 194.602 368.121 199.388 366.896 201.079C365.671 202.77 365.671 212.351 365.671 212.351C363.546 213.608 361.097 214.322 358.575 214.421C356.053 214.519 353.547 213.999 351.314 212.914C351.314 212.914 352.525 211.869 351.607 206.999C350.69 202.128 352.266 188.868 352.266 188.868C352.266 188.868 352.064 185.503 353.082 183.998C354.101 182.493 352.568 179.584 352.977 178.269C353.385 176.954 354.61 169.813 354.61 169.813C354.61 169.813 354.101 152.249 354.101 151.311C353.98 149.64 353.49 148.01 352.659 146.52C351.742 145.019 352.659 134.123 352.659 134.123C352.659 134.123 354.822 128.492 354.101 127.27C353.38 126.048 354.581 123.887 354.581 123.887C354.581 123.887 353.462 121.35 354.581 120.881C355.701 120.412 355.908 118.534 355.908 118.534L356.686 109.423C356.686 109.423 356.979 105.288 357.911 105.102C358.843 104.916 358.435 103.322 359.353 102.193C359.8 101.43 360.108 100.604 360.265 99.7489C360.395 99.2265 360.515 98.6819 360.616 98.1595C360.905 96.7427 361.082 95.5208 361.082 95.5208C367.098 100.125 398.728 96.8977 398.761 96.8977C400.77 97.3006 403.158 103.725 404.882 109.325C406.416 114.33 407.192 119.506 407.189 124.706Z" fill="#3F3D56"/>
<path d="M82.6035 361H100.173C100.433 360.565 100.675 360.119 100.899 359.667C102.921 355.678 103.775 351.226 104.592 346.864L105.918 339.779C101.68 342.618 97.4444 345.456 93.2104 348.292C91.8302 349.218 90.4195 350.183 89.0937 351.226C86.3025 353.407 83.8929 355.929 82.9487 359.131C82.9002 359.31 82.8518 359.488 82.8154 359.667C82.7149 360.107 82.6441 360.552 82.6035 361Z" fill="#F0F0F0"/>
<path d="M80.1395 359.667C80.1385 359.695 80.1405 359.723 80.1454 359.75C80.2043 360.177 80.3139 360.596 80.4723 361H88.3612C88.6092 360.572 88.8197 360.126 88.9906 359.667C89.2302 359.054 89.4026 358.42 89.5052 357.775C89.7674 355.587 89.6283 353.373 89.0937 351.226C88.9424 350.529 88.7789 349.826 88.6155 349.134L87.6831 345.184L83.0153 352.096C81.4532 354.412 79.8306 356.961 80.1395 359.667Z" fill="#F0F0F0"/>
<path d="M-8.56412e-06 360.331C-0.000417278 360.418 0.0178919 360.505 0.0538765 360.586C0.0898611 360.667 0.142823 360.741 0.209721 360.803C0.276619 360.865 0.35615 360.914 0.443775 360.948C0.5314 360.982 0.625397 361 0.720406 361H111.694C111.886 361 112.07 360.93 112.205 360.805C112.341 360.68 112.417 360.51 112.417 360.333C112.417 360.157 112.341 359.987 112.205 359.862C112.07 359.737 111.886 359.667 111.694 359.667H0.720406C0.529469 359.667 0.346477 359.737 0.211467 359.862C0.0764573 359.986 0.000419978 360.155 -8.56412e-06 360.331Z" fill="#CACACA"/>
<path d="M182.256 256.511C194.229 256.511 203.936 247.567 203.936 236.533C203.936 225.5 194.229 216.555 182.256 216.555C170.282 216.555 160.575 225.5 160.575 236.533C160.575 247.567 170.282 256.511 182.256 256.511Z" fill="#673AB7"/>
<path d="M179.298 246.931C178.923 246.931 178.554 246.85 178.219 246.696C177.885 246.542 177.593 246.318 177.369 246.042L171.454 238.774C171.263 238.541 171.125 238.275 171.046 237.992C170.967 237.709 170.949 237.415 170.994 237.126C171.038 236.837 171.144 236.558 171.306 236.307C171.467 236.056 171.681 235.836 171.934 235.661C172.188 235.486 172.476 235.358 172.784 235.286C173.091 235.213 173.41 235.197 173.724 235.239C174.038 235.28 174.34 235.379 174.612 235.528C174.885 235.677 175.123 235.874 175.313 236.108L179.182 240.862L189.121 227.125C189.296 226.881 189.522 226.671 189.785 226.508C190.048 226.345 190.344 226.231 190.655 226.173C190.966 226.115 191.287 226.115 191.598 226.171C191.909 226.228 192.206 226.34 192.47 226.503C192.734 226.665 192.96 226.873 193.137 227.116C193.313 227.36 193.436 227.632 193.498 227.919C193.559 228.206 193.559 228.501 193.497 228.788C193.434 229.075 193.311 229.347 193.134 229.59L181.305 245.941C181.091 246.237 180.803 246.481 180.465 246.653C180.128 246.825 179.751 246.92 179.365 246.93C179.343 246.93 179.32 246.931 179.298 246.931Z" fill="white"/>
<path d="M258.101 296.911C262.448 296.911 265.972 293.664 265.972 289.659C265.972 285.653 262.448 282.406 258.101 282.406C253.755 282.406 250.231 285.653 250.231 289.659C250.231 293.664 253.755 296.911 258.101 296.911Z" fill="#F2F2F2"/>
<path d="M320.393 296.911C324.74 296.911 328.263 293.664 328.263 289.659C328.263 285.653 324.74 282.406 320.393 282.406C316.046 282.406 312.522 285.653 312.522 289.659C312.522 293.664 316.046 296.911 320.393 296.911Z" fill="#F2F2F2"/>
<path d="M287.16 296.911C291.507 296.911 295.031 293.664 295.031 289.659C295.031 285.653 291.507 282.406 287.16 282.406C282.813 282.406 279.29 285.653 279.29 289.659C279.29 293.664 282.813 296.911 287.16 296.911Z" fill="#F2F2F2"/>
</g>
<defs>
<clipPath id="clip0_33_636">
<rect width="497" height="361" fill="white"/>
</clipPath>
</defs>
</svg>
