<svg width="230" height="236" viewBox="0 0 230 236" fill="none" xmlns="http://www.w3.org/2000/svg">
<rect width="230" height="236" fill="#D9D9D9"/>
<path d="M89.0942 57C90.9758 57 92.5438 58.3215 93.1228 60.0603C96.0899 69.0324 104.847 75.5471 115.195 75.5471C125.544 75.5471 134.301 69.0324 137.268 60.0603C137.847 58.3215 139.415 57 141.297 57H144.336C149.764 57 154.999 58.8315 159.172 62.17L189.615 86.5362C191.207 87.8113 192.197 89.666 192.365 91.6598C192.534 93.6536 191.859 95.6243 190.484 97.1312L176.975 111.969C174.225 115.006 169.448 115.354 166.216 112.78L153.792 102.834V160.864C153.792 169.047 146.869 175.701 138.354 175.701H92.0372C83.5217 175.701 76.5984 169.047 76.5984 160.864V102.834L64.175 112.78C60.9666 115.354 56.1902 115.006 53.416 111.969L39.9071 97.1312C38.5321 95.6243 37.8566 93.6536 38.0255 91.6598C38.1943 89.666 39.1834 87.8113 40.7755 86.5362L71.2189 62.17C75.3922 58.8315 80.627 57 86.0547 57H89.0942Z" fill="#959595"/>
<rect x="109.115" y="115.425" width="79.3104" height="79.0209" rx="38.069" fill="#D9D9D9"/>
<path d="M164.503 176.744L126.629 139.009C123.46 143.421 121.606 148.834 121.606 154.684C121.606 169.626 133.773 181.749 148.77 181.749C154.642 181.749 160.074 179.902 164.503 176.744ZM170.911 170.359C174.081 165.947 175.934 160.534 175.934 154.684C175.934 139.742 163.767 127.619 148.77 127.619C142.899 127.619 137.466 129.466 133.038 132.623L170.911 170.359ZM112.552 154.684C112.552 145.113 116.368 135.935 123.16 129.167C129.952 122.4 139.164 118.598 148.77 118.598C158.376 118.598 167.588 122.4 174.38 129.167C181.173 135.935 184.989 145.113 184.989 154.684C184.989 164.255 181.173 173.433 174.38 180.201C167.588 186.968 158.376 190.77 148.77 190.77C139.164 190.77 129.952 186.968 123.16 180.201C116.368 173.433 112.552 164.255 112.552 154.684Z" fill="#959595"/>
</svg>
